<svg width="507" height="192" viewBox="0 0 507 192" fill="none" xmlns="http://www.w3.org/2000/svg">
<path d="M322.004 77.3834L321.832 51.6461C321.832 50.9598 321.832 50.1019 321.832 49.4156C321.832 49.244 321.832 49.0724 321.832 48.9008C321.832 48.0429 321.832 47.3566 322.004 46.4987C322.004 45.6408 322.175 44.7829 322.175 43.9249C322.175 43.7534 322.175 43.5818 322.175 43.2386C322.347 41.1796 322.69 39.2922 322.862 37.748H321.832C320.803 41.008 318.573 46.3271 316.857 49.0724L306.564 66.7453L306.736 92.311H332.812L347.737 77.3834H322.004Z" fill="#C9403A"/>
<path d="M301.932 28.6542C301.932 32.6006 301.245 38.6059 300.731 42.5523H301.76C302.961 39.2922 305.02 34.1448 306.735 31.2279L323.032 1.71582L308.107 16.6435L302.103 27.6247L301.932 28.6542Z" fill="#C9403A"/>
<path d="M312.739 136.579H316.513C317.886 136.579 320.116 136.236 321.145 135.035C321.832 134.52 322.518 133.319 322.518 131.432C322.518 129.544 321.66 128.343 320.974 127.828C319.601 126.799 317.371 126.799 316.513 126.799H312.739V136.579Z" fill="#C9403A"/>
<path d="M237.429 131.088C233.14 131.088 230.223 132.804 228.679 134.52C228.508 134.863 228.165 135.035 227.993 135.378C227.65 135.893 227.307 136.408 226.964 137.094C226.964 137.265 226.792 137.265 226.792 137.437C226.449 137.952 226.278 138.638 225.935 139.153C225.763 139.839 225.591 140.354 225.42 141.04C225.42 141.212 225.42 141.383 225.248 141.383C225.077 142.07 225.077 142.756 224.905 143.271C224.905 143.614 224.905 143.957 224.905 144.472C224.905 144.987 224.905 145.501 224.905 146.016V146.188C224.905 146.702 225.077 147.389 225.248 147.904C225.248 148.075 225.248 148.247 225.42 148.418C225.591 148.933 225.763 149.619 225.935 150.134C225.935 150.134 225.935 150.306 226.106 150.306C226.278 150.649 226.449 151.164 226.621 151.507C226.621 151.507 226.621 151.678 226.792 151.678L226.964 151.85C227.135 152.193 227.307 152.536 227.65 152.879C227.65 153.051 227.822 153.051 227.822 153.223C228.165 153.566 228.508 153.909 228.851 154.252C230.738 156.139 233.654 157.512 237.085 157.684C237.085 157.169 237.085 156.654 237.085 156.311C237.085 155.968 237.085 155.625 237.085 155.11C237.085 154.424 237.257 153.737 237.429 153.223C237.429 153.051 237.429 152.879 237.6 152.879C237.772 152.193 237.943 151.678 238.115 150.992C238.286 150.306 238.629 149.791 238.973 149.276C238.973 149.105 239.144 149.105 239.144 148.933C239.487 148.418 239.83 147.732 240.173 147.217C240.345 146.874 240.688 146.702 240.86 146.359C242.404 144.643 245.32 142.928 249.609 142.928C249.78 142.928 249.952 142.928 250.123 142.928C249.78 139.324 248.579 136.408 246.349 134.349C244.291 132.633 241.374 131.088 237.429 131.088Z" fill="#C9403A"/>
<path d="M285.977 92.311L300.902 77.3834H276.37L275.684 1.88741L260.759 16.815L261.445 92.311H285.977Z" fill="#C9403A"/>
<path d="M322.689 160.772C323.89 159.914 325.091 158.542 325.091 156.311C325.091 154.595 324.405 153.223 323.376 152.365C321.832 150.992 319.43 150.992 318.057 150.992H312.739V162.145H317.714C318.915 161.973 320.974 161.802 322.689 160.772Z" fill="#C9403A"/>
<path d="M423.391 48.5576C423.562 48.3861 423.905 48.0429 424.077 47.8713L422.533 49.4156C422.704 49.0724 423.047 48.7292 423.391 48.5576Z" fill="#C9403A"/>
<path d="M397.315 153.909L394.227 141.04C393.712 138.467 393.197 135.893 393.026 133.491H392.168C392.168 134.005 392.168 134.52 391.997 135.035C391.997 135.721 391.825 136.408 391.825 137.094C391.825 137.265 391.825 137.265 391.825 137.437C391.654 138.638 391.31 139.839 390.967 141.212L387.536 154.08H397.315V153.909Z" fill="#C9403A"/>
<path d="M478.802 47.8713C477.258 46.6703 475.2 46.6703 473.484 46.6703H467.651L467.823 59.1957H472.969C475.371 59.1957 477.258 58.8526 478.631 57.9946C478.974 57.8231 479.145 57.4799 479.489 57.3083C479.66 57.1367 479.832 56.7936 480.003 56.622V56.4504C480.175 56.2788 480.346 55.9357 480.346 55.5925V55.4209C480.518 55.0778 480.518 54.7346 480.689 54.3914C480.689 54.3914 480.689 54.2198 480.689 54.0483C480.689 53.7051 480.861 53.1904 480.861 52.6756C481.032 49.9303 479.66 48.5577 478.802 47.8713Z" fill="#C9403A"/>
<path d="M462.161 92.311C473.998 92.311 480.86 89.2225 484.978 85.6193C485.149 85.4477 485.321 85.2762 485.492 85.1046L500.417 70.177C500.246 70.3485 500.074 70.5201 499.903 70.6917C495.785 74.2949 488.923 77.3834 477.086 77.3834H441.575L441.06 1.88741L426.135 16.815L426.65 92.311H462.161Z" fill="#C9403A"/>
<path d="M389.595 94.0268C393.026 94.0268 401.432 93.6837 408.637 90.9383L423.562 76.0108C416.528 78.7561 408.122 79.0992 404.52 79.0992C394.741 79.0992 384.105 75.496 376.557 68.118C369.351 61.0831 365.406 50.9598 365.406 40.3217C365.234 28.6542 369.694 18.7024 376.557 11.6676L361.632 26.5952C354.769 33.63 350.481 43.5818 350.481 55.2494C350.481 65.8874 354.426 76.0107 361.632 83.0456C369.008 90.5952 379.645 94.0268 389.595 94.0268Z" fill="#C9403A"/>
<path d="M406.236 24.3646C406.064 24.3646 405.892 24.3646 405.721 24.3646C405.378 24.3646 405.035 24.3646 404.692 24.5362C404.52 24.5362 404.348 24.7078 404.177 24.7078C403.834 24.7078 403.662 24.8794 403.319 24.8794C403.148 24.8794 402.976 25.051 402.633 25.051C402.29 25.2225 402.118 25.2225 401.775 25.3941C401.604 25.3941 401.432 25.5657 401.261 25.7373C401.089 25.9088 400.746 25.9089 400.574 26.0805C400.403 26.252 400.231 26.252 400.06 26.4236C399.888 26.5952 399.545 26.7668 399.373 26.7668C399.202 26.9383 399.03 27.1099 398.859 27.1099C398.687 27.2815 398.516 27.4531 398.173 27.6247C398.001 27.7963 397.829 27.9678 397.658 28.1394C397.315 28.311 397.143 28.6542 396.8 28.8257C394.227 31.5711 393.026 35.3459 392.854 39.1207C399.717 39.1207 405.549 43.4102 408.809 46.6703L423.734 31.7426C420.474 28.6542 414.642 24.193 407.78 24.193C407.265 24.3646 406.75 24.3646 406.236 24.3646Z" fill="#C9403A"/>
<path d="M228.679 25.5657H211.867L212.038 40.4933H213.754L214.097 92.311H240.516L255.441 77.3834H229.022L228.679 25.5657Z" fill="#C9403A"/>
<path d="M406.064 110.842L429.566 178.102H403.662L401.432 169.694H382.904L381.017 178.102H355.113L359.059 166.777C358.887 166.263 358.887 165.92 358.715 165.405V165.233C358.544 164.719 358.201 164.204 358.029 163.689C358.029 163.517 357.858 163.517 357.858 163.346C357.686 163.003 357.343 162.66 357.171 162.145L357 161.973C356.828 161.802 356.828 161.63 356.657 161.458C356.485 161.287 356.485 161.287 356.314 161.115C355.971 160.772 355.628 160.429 355.284 160.086L349.623 154.424C351.339 153.566 352.883 152.193 353.912 150.992C353.912 150.992 353.912 150.992 353.912 150.82C354.255 150.306 354.598 149.962 354.77 149.448L354.941 149.276V149.105C355.113 148.59 355.456 148.247 355.628 147.732C355.799 147.217 355.971 146.702 356.142 146.188V145.844C356.142 145.673 356.142 145.33 356.314 145.158C356.314 144.987 356.314 144.815 356.485 144.643C356.485 144.472 356.485 144.129 356.485 143.957C356.485 143.786 356.485 143.786 356.485 143.614V143.442C356.485 142.928 356.485 142.584 356.485 142.07C356.485 141.212 356.485 140.525 356.314 139.668V139.496C356.314 139.324 356.314 139.324 356.314 139.153C356.314 138.466 356.142 137.952 355.971 137.265C355.971 137.094 355.971 137.094 355.971 136.922C355.799 136.236 355.627 135.721 355.456 135.206C355.456 135.035 355.456 135.035 355.284 134.863C355.284 134.692 355.113 134.52 355.113 134.349C354.941 134.005 354.941 133.834 354.77 133.491C354.77 133.491 354.77 133.319 354.598 133.319C354.427 132.804 354.083 132.461 353.912 131.946C353.912 131.775 353.74 131.775 353.74 131.603C353.569 131.26 353.397 130.917 353.226 130.745L353.054 130.574C352.883 130.402 352.711 130.231 352.54 130.059C352.54 129.887 352.368 129.887 352.368 129.716C352.196 129.373 351.853 129.201 351.682 129.03L339.845 117.019L340.016 117.19C340.188 117.362 340.188 117.362 340.359 117.534L340.531 117.705C340.531 117.877 340.702 117.877 340.702 118.048C340.874 118.22 340.874 118.391 341.046 118.563L341.389 118.906C341.389 118.906 341.56 119.078 341.56 119.249C341.732 119.421 341.732 119.593 341.903 119.764C341.903 119.936 342.075 119.936 342.075 120.107C342.075 120.279 342.246 120.45 342.246 120.622C342.418 120.794 342.418 121.137 342.59 121.308C342.59 121.308 342.59 121.48 342.761 121.48V121.651C342.761 121.823 342.933 121.995 342.933 122.166C343.104 122.509 343.104 122.681 343.276 123.024C343.276 123.196 343.276 123.196 343.447 123.367C343.619 123.71 343.619 123.882 343.619 124.225C343.619 124.568 343.79 124.74 343.79 125.083C343.79 125.255 343.79 125.255 343.79 125.426C343.79 125.769 343.962 126.113 343.962 126.627C343.962 126.971 344.133 127.142 344.133 127.485C344.133 127.485 344.133 127.485 344.133 127.657C344.133 128.515 344.305 129.201 344.305 130.059C344.305 130.574 344.305 130.917 344.305 131.432C344.305 131.603 344.305 131.775 344.305 131.946C344.305 132.118 344.305 132.461 344.305 132.633C344.305 132.804 344.305 132.804 344.305 132.976C344.305 133.319 344.133 133.491 344.133 133.834C344.133 134.005 344.133 134.177 343.962 134.177C343.79 134.692 343.619 135.206 343.447 135.721C343.276 136.236 342.933 136.922 342.59 137.437C342.59 137.437 342.59 137.609 342.418 137.609C342.075 138.123 341.903 138.466 341.56 138.981C341.56 138.981 341.56 139.153 341.389 139.153C340.702 140.011 339.845 140.697 338.815 141.555C337.786 142.241 336.757 142.928 335.384 143.442L335.213 143.957C337.958 144.643 340.188 146.016 342.246 147.904C344.648 150.134 346.021 152.536 346.707 155.281V155.453C347.05 156.654 347.05 157.855 347.05 159.228C347.05 159.914 347.05 160.601 346.878 161.287C346.878 161.458 346.878 161.63 346.878 161.63C346.878 162.145 346.707 162.488 346.707 163.003C346.192 165.062 345.506 166.949 344.477 168.665C344.305 169.008 344.133 169.18 343.962 169.523L343.79 169.694C343.447 170.038 343.276 170.552 342.933 170.895C342.589 171.239 342.246 171.582 341.903 171.925C341.732 172.097 341.56 172.268 341.389 172.44C340.874 172.954 340.359 173.469 339.673 173.812C334.012 177.759 327.321 178.102 321.832 178.102H289.923L301.76 190.113H334.527C339.845 190.113 346.707 189.769 352.368 185.823C352.883 185.48 353.569 184.965 354.083 184.45C354.255 184.279 354.427 184.107 354.598 183.936C354.941 183.592 355.284 183.249 355.628 182.906L355.799 182.735C355.971 182.391 356.314 182.048 356.485 181.705L356.657 181.534C357 181.19 357.171 180.676 357.343 180.332L367.121 190.113H392.854L394.741 181.705H407.093L415.499 190.113H441.404L417.901 122.853L406.064 110.842Z" fill="#C9403A"/>
<path d="M286.492 153.737C286.492 153.223 286.492 152.879 286.32 152.536V152.365C286.32 151.678 286.149 150.992 285.977 150.134C285.977 149.962 285.977 149.791 285.806 149.448C285.634 148.933 285.634 148.247 285.462 147.732C285.462 147.56 285.462 147.389 285.291 147.217C285.119 146.531 284.948 145.845 284.776 145.158C284.776 144.987 284.605 144.815 284.605 144.643C284.433 144.129 284.262 143.614 284.09 143.099C284.09 142.928 284.09 142.928 283.918 142.756C283.918 142.756 283.918 142.584 283.747 142.584C283.575 141.898 283.232 141.383 282.889 140.697C282.546 140.011 282.374 139.496 282.031 138.981C281.86 138.81 281.86 138.638 281.688 138.467C281.517 137.952 281.174 137.609 280.83 137.094C280.83 136.922 280.659 136.922 280.659 136.751C280.316 136.236 279.973 135.721 279.63 135.206C279.63 135.206 279.63 135.206 279.63 135.035L279.458 134.863C279.115 134.52 278.772 134.005 278.6 133.662C278.429 133.491 278.429 133.491 278.257 133.319C277.914 132.804 277.399 132.461 277.056 131.946L276.885 131.775L265.048 119.764L265.219 119.936C266.077 120.794 266.935 121.823 267.621 122.853C268.479 123.882 269.165 125.083 269.851 126.456C270.023 126.627 270.023 126.799 270.194 126.971C270.537 127.485 270.88 128.172 271.052 128.686C271.567 129.887 272.253 131.26 272.596 132.804C272.596 132.976 272.596 132.976 272.768 133.147C272.939 133.834 273.111 134.52 273.282 135.206V135.378C273.454 136.064 273.625 136.751 273.625 137.437C273.625 137.609 273.625 137.78 273.797 138.123C273.968 139.324 274.14 140.525 274.14 141.727C274.14 141.898 274.14 142.241 274.14 142.413C274.14 143.099 274.14 143.786 274.14 144.472C274.14 145.673 273.968 146.874 273.968 147.904C273.797 149.448 273.625 150.82 273.282 152.365C273.111 153.051 272.939 153.737 272.768 154.424C272.253 156.139 271.738 157.684 271.052 159.056C270.709 159.743 270.366 160.429 270.023 161.115C269.508 162.316 268.822 163.346 268.136 164.375C267.964 164.547 267.964 164.547 267.793 164.719C266.763 166.263 265.562 167.635 264.361 168.836C258.529 174.67 249.093 179.646 236.398 179.646C235.369 179.646 234.34 179.646 233.311 179.475C232.967 179.475 232.796 179.475 232.624 179.475C231.767 179.475 230.737 179.303 229.879 179.131H229.708C228.85 178.96 227.821 178.788 226.963 178.617C226.792 178.617 226.448 178.445 226.277 178.445C225.419 178.273 224.733 178.102 223.875 177.759H223.704C222.503 177.416 221.302 176.901 220.273 176.558H220.101C219.072 176.043 218.042 175.7 217.013 175.013H216.842C216.155 174.67 215.469 174.327 214.783 173.812C214.611 173.641 214.44 173.641 214.268 173.469C213.754 173.126 213.239 172.783 212.724 172.44C212.553 172.44 212.553 172.268 212.381 172.268C211.867 171.753 211.18 171.41 210.666 170.895C210.494 170.724 210.494 170.724 210.323 170.552C209.808 170.209 209.465 169.694 209.122 169.351L208.95 169.18L220.787 181.19C226.448 186.853 235.712 191.657 248.407 191.657C261.274 191.657 270.709 186.681 276.37 180.847C277.056 180.161 277.743 179.475 278.257 178.617C278.772 177.93 279.458 177.072 279.973 176.386C280.144 176.215 280.316 175.871 280.487 175.7C280.831 175.185 281.174 174.67 281.517 174.156C281.517 174.156 281.517 173.984 281.688 173.984C281.86 173.812 281.86 173.469 282.031 173.298C282.374 172.611 282.718 171.925 283.061 171.239C283.232 170.895 283.232 170.724 283.404 170.381C283.575 170.209 283.575 169.866 283.747 169.694C283.918 169.18 284.09 168.665 284.262 167.979C284.262 167.807 284.433 167.635 284.433 167.464C284.776 166.606 284.948 165.748 285.119 164.89C285.119 164.719 285.119 164.547 285.119 164.375C285.119 164.032 285.291 163.861 285.291 163.517C285.462 162.66 285.634 161.802 285.634 160.944C285.634 160.601 285.634 160.257 285.806 159.914C285.806 159.743 285.806 159.4 285.806 159.228C285.806 158.37 285.977 157.34 285.977 156.311C285.977 155.625 285.977 154.938 285.977 154.252C286.492 154.252 286.492 154.08 286.492 153.737Z" fill="#C9403A"/>
<path d="M200.03 144.472C200.03 139.324 201.059 134.863 202.603 130.917V122.853L190.766 110.842L190.594 132.633L176.87 132.118L176.527 178.102H152.51L164.347 190.113H188.364L188.707 144.129L200.03 144.472Z" fill="#C9403A"/>
<path d="M458.216 136.751C459.589 137.437 461.132 137.609 463.02 137.609C464.564 137.609 466.794 137.265 468.509 135.721C469.71 134.692 470.568 132.976 470.568 130.402C470.568 129.03 470.396 127.828 469.367 126.627C468.509 125.769 467.48 125.598 466.451 125.598C464.392 125.598 463.363 126.627 463.02 126.971C462.848 127.314 462.676 127.485 462.505 127.828C462.505 127.828 462.505 128 462.333 128C462.162 128.343 462.162 128.515 461.99 128.858C461.99 129.03 461.99 129.03 461.819 129.201C461.819 129.373 461.819 129.544 461.647 129.716C461.647 130.059 461.476 130.402 461.476 130.574C461.476 130.917 461.476 131.26 461.476 131.603H438.659L450.496 143.614H457.873L458.216 136.751Z" fill="#C9403A"/>
<path d="M152.853 132.118L139.129 132.804L151.138 144.815L152.853 144.643V132.118Z" fill="#C9403A"/>
<path d="M504.535 140.869C504.535 140.697 504.535 140.697 504.535 140.525C504.535 139.839 504.363 139.153 504.192 138.467V138.295C504.02 137.609 503.849 136.922 503.677 136.408C503.677 136.236 503.506 136.236 503.506 136.064C503.506 135.893 503.506 135.721 503.334 135.721C503.163 135.206 502.991 134.863 502.82 134.349V134.177C502.648 133.662 502.305 133.147 501.962 132.804C501.962 132.633 501.79 132.461 501.79 132.461C501.447 131.946 501.276 131.603 500.932 131.26C500.932 131.26 500.932 131.26 500.761 131.088C500.589 130.745 500.246 130.574 500.075 130.231C499.903 130.059 499.903 129.887 499.732 129.887C499.389 129.544 499.045 129.201 498.702 128.858L486.865 116.847C487.38 117.362 487.723 117.877 488.238 118.391C489.095 119.592 490.125 120.965 490.982 122.509C491.326 123.024 491.497 123.71 491.669 124.225C492.012 125.083 492.183 125.941 492.355 126.799C492.355 127.142 492.526 127.485 492.526 128C492.526 128.343 492.698 128.858 492.698 129.373C492.698 130.231 492.87 131.088 492.87 131.946C492.87 132.633 492.869 133.319 492.698 134.005C492.698 135.035 492.526 135.893 492.355 136.751C492.355 137.265 492.183 137.609 492.012 137.952C491.84 138.81 491.497 139.668 491.326 140.354C491.326 140.354 491.326 140.525 491.154 140.525C490.639 141.898 489.953 143.099 489.095 144.3C488.924 144.472 488.924 144.643 488.752 144.815C488.581 144.987 488.581 145.158 488.409 145.33C488.066 145.845 487.723 146.188 487.38 146.531C481.719 152.365 472.626 153.051 466.965 153.051C463.706 153.051 461.132 152.879 458.216 152.193L463.191 157.34C464.049 157.169 464.907 157.169 465.764 157.169C469.367 157.169 473.313 158.37 475.886 160.944C477.258 162.316 478.116 164.032 478.631 165.92C478.631 166.091 478.631 166.091 478.631 166.263C478.802 166.949 478.802 167.635 478.802 168.322C478.802 169.008 478.631 169.694 478.459 170.381C478.459 170.381 478.459 170.381 478.459 170.552C478.288 170.895 478.288 171.41 478.116 171.753V171.925C477.773 172.954 477.087 173.984 476.401 175.013C476.229 175.357 475.886 175.528 475.714 175.871C473.141 178.445 469.024 179.646 465.421 179.646C464.907 179.646 464.392 179.646 463.877 179.646C463.706 179.646 463.534 179.646 463.363 179.646C463.019 179.646 462.676 179.475 462.333 179.475C462.162 179.475 461.99 179.475 461.819 179.303C461.475 179.303 461.132 179.131 460.789 178.96C460.618 178.96 460.446 178.788 460.275 178.788C459.245 178.445 458.216 177.93 457.187 177.244C457.015 177.244 457.015 177.072 456.844 176.901C456.329 176.558 455.814 176.214 455.471 175.7L467.308 187.71C469.882 190.284 473.999 191.485 477.43 191.485C481.032 191.485 484.978 190.284 487.723 187.71C487.895 187.539 488.238 187.196 488.409 186.853C488.752 186.338 489.095 185.995 489.439 185.48C489.439 185.48 489.438 185.48 489.61 185.308C489.61 185.308 489.61 185.308 489.61 185.137C489.782 184.622 490.125 184.279 490.296 183.764C490.296 183.764 490.296 183.764 490.296 183.592V183.421C490.468 183.078 490.639 182.563 490.639 182.22V182.048C490.811 181.534 490.811 181.19 490.811 180.847C490.811 180.847 490.811 180.847 490.811 180.676C490.811 180.504 490.811 180.332 490.811 179.989C490.811 179.646 490.811 179.475 490.811 179.131C490.811 178.788 490.639 178.273 490.639 177.93C490.639 177.759 490.639 177.759 490.639 177.587C490.468 177.244 490.468 176.901 490.296 176.558V176.386C490.125 176.043 489.953 175.528 489.782 175.185C489.782 175.013 489.61 175.013 489.61 174.842C489.438 174.499 489.267 174.155 489.095 173.984C489.095 173.984 489.095 173.812 488.924 173.812C488.924 173.812 488.924 173.812 488.752 173.641C488.409 173.298 488.238 172.954 487.895 172.611L480.003 164.719C485.664 164.547 493.899 163.689 499.217 158.198C499.56 157.855 499.903 157.512 500.246 157.169L500.418 156.997C500.589 156.826 500.589 156.654 500.761 156.483C500.932 156.139 501.276 155.796 501.447 155.453C501.619 155.282 501.619 155.11 501.79 154.938C501.79 154.767 501.962 154.595 501.962 154.595C501.962 154.424 502.133 154.424 502.133 154.252C502.476 153.566 502.82 152.879 503.163 152.021C503.163 152.021 503.163 151.85 503.334 151.85C503.334 151.85 503.334 151.85 503.334 151.678C503.334 151.507 503.334 151.507 503.506 151.335C503.677 150.82 503.849 150.477 504.02 149.962C504.02 149.791 504.192 149.619 504.192 149.448C504.192 149.276 504.364 149.105 504.364 148.933C504.364 148.761 504.364 148.418 504.535 148.247C504.535 148.075 504.707 147.732 504.707 147.56C504.707 147.046 504.878 146.702 504.878 146.188C504.878 146.016 504.878 145.673 504.878 145.501V145.33C504.878 144.643 504.878 144.129 504.878 143.442C504.878 142.584 504.878 141.898 504.707 141.04C504.535 141.04 504.535 140.869 504.535 140.869Z" fill="#C9403A"/>
<path d="M103.274 92.311L112.709 82.874H126.09L128.664 92.311H157.828L170.866 79.0992L171.037 92.311H197.456L212.381 77.3834H185.962L185.276 1.88741L170.351 16.815L170.866 72.4075L172.581 77.3834H143.589L141.015 67.9464H120.086L118.199 77.3834H89.2067L114.768 1.88741L99.8429 16.815L74.2817 92.311H103.274Z" fill="#C9403A"/>
<path d="M73.0809 34.3164C72.5663 34.8311 71.8801 35.3459 71.3654 35.8606C71.1939 36.0322 71.0223 36.0322 70.8508 36.2038C70.3361 36.5469 69.8214 36.8901 69.3068 37.0617L69.1352 37.2333C68.6206 37.5764 68.1059 37.748 67.5913 37.9196V38.2627C67.9344 38.4343 68.449 38.6059 68.7921 38.7775L73.0809 34.3164Z" fill="#C9403A"/>
<path d="M92.4668 131.088C88.178 131.088 85.2617 132.804 83.7177 134.52C83.3746 134.863 83.203 135.035 83.0315 135.378C82.6884 135.893 82.3453 136.408 82.0022 136.922C82.0022 137.094 81.8306 137.094 81.8306 137.265C81.4875 137.78 81.3159 138.466 80.9728 138.981C80.8013 139.668 80.6297 140.182 80.4582 140.869C80.4582 141.04 80.4582 141.212 80.2866 141.212C80.1151 141.898 80.1151 142.584 79.9435 143.099C79.9435 143.442 79.9435 143.786 79.9435 144.3C79.9435 144.815 79.9435 145.33 79.9435 145.845V146.016C79.9435 146.531 80.1151 147.217 80.2866 147.732C80.2866 147.904 80.2866 148.075 80.4582 148.247C80.6297 148.761 80.8013 149.448 80.9728 149.962C80.9728 150.134 80.9729 150.134 81.1444 150.306C81.316 150.649 81.4875 151.164 81.6591 151.507C81.6591 151.507 81.6591 151.507 81.6591 151.678C81.6591 151.85 81.8306 151.85 81.8306 152.021C82.0022 152.365 82.1737 152.708 82.5168 153.051C82.5168 153.223 82.6884 153.223 82.6884 153.394C83.0315 153.737 83.3746 154.252 83.7177 154.595C85.6048 156.483 88.5211 157.855 91.9522 158.027C91.9522 157.512 91.9522 156.997 91.9522 156.654C91.9522 156.311 91.9522 155.968 91.9522 155.453C91.9522 154.767 92.1237 154.08 92.2953 153.566C92.2953 153.394 92.2953 153.223 92.4668 153.223C92.6384 152.536 92.8099 151.85 92.9815 151.335C93.1531 150.649 93.4962 150.134 93.8393 149.619C93.8393 149.448 94.0108 149.448 94.0108 149.276C94.3539 148.761 94.697 148.075 95.0401 147.732C95.2117 147.389 95.5548 147.217 95.7263 146.874C97.2703 145.158 100.187 143.442 104.476 143.442C104.647 143.442 104.819 143.442 104.99 143.442C104.647 139.839 103.446 136.922 101.216 134.863C99.3289 132.633 96.4125 131.088 92.4668 131.088Z" fill="#C9403A"/>
<path d="M141.531 153.737C141.531 153.394 141.531 152.879 141.531 152.536V152.365C141.531 151.678 141.359 150.992 141.188 150.306C141.188 150.134 141.188 149.963 141.016 149.619C140.844 149.105 140.844 148.418 140.673 147.904C140.673 147.732 140.673 147.56 140.501 147.389C140.33 146.702 140.158 146.016 139.987 145.33C139.987 145.158 139.815 144.987 139.815 144.815C139.644 144.3 139.472 143.786 139.301 143.271C139.301 143.099 139.301 143.099 139.129 142.928C139.129 142.928 139.129 142.756 138.957 142.756C138.786 142.07 138.443 141.555 138.1 140.869C137.757 140.182 137.585 139.668 137.242 139.153C137.07 138.981 137.07 138.81 136.899 138.638C136.727 138.123 136.384 137.78 136.041 137.265C136.041 137.094 135.869 137.094 135.869 136.922C135.526 136.408 135.183 135.893 134.84 135.378C134.84 135.378 134.84 135.378 134.84 135.206L134.669 135.035C134.326 134.692 133.982 134.177 133.811 133.834C133.639 133.662 133.639 133.662 133.468 133.491C133.125 132.976 132.61 132.633 132.267 132.118L132.095 131.946L120.258 119.936L120.43 120.107C120.773 120.622 121.288 120.965 121.631 121.48C121.802 121.652 121.802 121.651 121.974 121.823C122.317 122.166 122.66 122.681 123.003 123.024L123.175 123.196C123.518 123.711 123.861 124.225 124.204 124.74C124.204 124.912 124.375 124.912 124.375 125.083C124.719 125.426 124.89 125.941 125.233 126.456C125.405 126.627 125.405 126.799 125.576 126.971C125.919 127.485 126.263 128.172 126.434 128.686C127.463 130.745 128.15 133.147 128.836 135.55C128.836 135.55 128.836 135.55 128.836 135.721C129.007 136.408 129.179 137.094 129.179 137.952V138.123C129.35 139.324 129.522 140.525 129.522 141.727C129.522 141.898 129.522 142.241 129.522 142.413C129.522 143.099 129.522 143.786 129.522 144.472C129.522 145.673 129.35 146.874 129.35 147.904C129.179 149.448 129.007 150.82 128.664 152.365C128.664 152.708 128.493 153.051 128.321 153.566C127.978 154.767 127.635 155.968 127.292 156.997C127.12 157.512 126.949 157.855 126.777 158.37C126.606 158.713 126.434 159.056 126.263 159.399C125.919 160.086 125.748 160.601 125.405 161.287C125.233 161.458 125.233 161.802 125.062 161.973C124.89 162.316 124.547 162.66 124.375 163.003C124.032 163.517 123.861 164.032 123.518 164.547C123.003 165.405 122.317 166.091 121.802 166.778C121.116 167.464 120.601 168.322 119.915 169.008C114.082 174.842 104.647 179.818 91.9521 179.818C90.7513 179.818 89.5504 179.818 88.3495 179.646C88.178 179.646 88.0064 179.646 87.8349 179.646C86.634 179.475 85.6047 179.475 84.5754 179.303C84.4038 179.303 84.2323 179.303 83.8892 179.131C82.8598 178.96 81.8305 178.788 80.8012 178.445C80.6297 178.445 80.4581 178.445 80.4581 178.273C79.4288 177.93 78.571 177.759 77.5417 177.416H77.3702C76.1693 177.072 75.14 176.558 74.1107 176.043H73.9391C72.9098 175.528 71.8805 175.013 71.0228 174.499C71.0228 174.499 70.8512 174.499 70.8512 174.327C69.9934 173.812 69.1357 173.126 68.2779 172.611C68.2779 172.611 68.1064 172.611 68.1064 172.44C67.5917 171.925 66.9055 171.582 66.3908 171.067C66.2193 170.895 66.2193 170.895 66.0477 170.724C65.5331 170.381 65.19 169.866 64.8469 169.523L64.6753 169.351L76.5124 181.362C82.1736 187.196 91.4375 192 104.132 192C116.999 192 126.434 187.024 132.095 181.19C132.782 180.504 133.468 179.818 133.982 178.96C134.497 178.273 135.183 177.416 135.698 176.729C135.869 176.558 136.041 176.214 136.213 176.043C136.556 175.528 136.899 175.013 137.242 174.499C137.242 174.499 137.242 174.327 137.413 174.327C137.585 174.156 137.585 173.812 137.757 173.641C138.1 172.954 138.443 172.268 138.786 171.582C138.957 171.239 138.957 171.067 139.129 170.724C139.301 170.552 139.301 170.209 139.472 170.038C139.644 169.523 139.815 169.008 139.987 168.322C139.987 168.15 140.158 167.979 140.158 167.807C140.501 166.949 140.673 166.091 140.844 165.233C140.844 165.062 140.844 164.89 140.844 164.719C140.844 164.375 141.016 164.204 141.016 163.861C141.188 163.003 141.359 162.145 141.359 161.287C141.359 160.944 141.359 160.601 141.531 160.257C141.531 160.086 141.531 159.743 141.531 159.571C141.531 158.713 141.702 157.684 141.702 156.654C141.702 155.968 141.702 155.282 141.702 154.595C141.531 154.252 141.531 153.909 141.531 153.737Z" fill="#C9403A"/>
<path d="M130.894 27.1099H129.865C129.693 30.1984 129.35 32.9437 128.664 35.5174L125.061 50.1019H136.041L132.438 35.5174C131.752 32.6006 131.237 29.8552 130.894 27.1099Z" fill="#C9403A"/>
<path d="M59.3569 127.142V122.853L47.5198 110.842L47.3482 130.059H26.2473L25.9042 178.102H1.54379L13.3809 190.113H37.7413L38.0844 142.07H55.0681C55.5827 136.236 57.1267 131.26 59.3569 127.142Z" fill="#C9403A"/>
<path d="M0 85.7909C1.88707 86.992 7.03364 89.7373 13.2095 91.4531C19.3854 93.3405 25.5613 94.0268 32.0803 94.0268C42.5449 94.0268 49.7501 92.1394 54.7251 89.2225C56.6122 88.193 58.1562 86.992 59.5286 85.6193L74.4536 70.6917C74.4536 70.6917 74.2821 70.6917 74.2821 70.8633C73.5959 71.5496 72.9097 72.0644 72.2235 72.5791C72.2235 72.5791 72.0519 72.5791 72.0519 72.7507C71.3657 73.2654 70.5079 73.9517 69.6502 74.4665C64.5036 77.3834 57.47 79.2708 47.0053 79.2708C40.4863 79.2708 34.482 78.7561 28.1346 76.6971C21.9587 74.8097 16.8121 72.2359 14.925 71.0348L24.0173 50.6166C26.419 52.8472 29.507 55.0778 32.5949 56.4504C36.1975 57.9947 39.457 58.681 42.7165 58.681C44.9467 58.681 47.6915 58.1662 49.2355 57.4799C50.0932 57.1367 50.6079 56.622 51.1225 55.9357C51.2941 55.5925 51.4657 55.2493 51.6372 54.9062V54.7346C51.8088 54.3914 51.8088 54.0483 51.8088 53.5335C51.8088 51.8177 51.1225 50.6166 49.2355 49.7587C47.6915 49.0724 44.2605 48.9008 42.7165 48.9008H32.5949L32.4234 30.0268H41.5156C45.6329 30.0268 47.0053 29.6837 47.6915 29.5121C48.5493 29.3405 49.2355 28.9973 49.7501 28.311C49.7501 28.311 49.9217 28.1394 49.9217 27.9678L50.0932 27.7963C50.0932 27.6247 50.2648 27.6247 50.2648 27.4531L50.4363 27.2815C50.4363 27.1099 50.6079 26.9383 50.6079 26.7668V26.5952C50.6079 26.4236 50.6079 26.0804 50.6079 25.7373C50.6079 23.1635 48.7208 22.1341 47.6915 21.7909C45.4613 20.933 43.0596 20.7614 41.8587 20.7614C38.7708 20.7614 35.3398 21.6193 32.7665 22.8204C30.3647 23.8499 27.6199 25.7373 25.5613 27.6247L17.1552 8.57909L2.23018 23.5067L10.6362 42.5523C12.6949 40.6649 15.4397 38.7775 17.8414 37.748C20.4147 36.5469 23.6742 35.8606 26.5906 35.689L17.3268 44.9544L17.4983 56.9652L8.92071 65.7158L0 85.7909Z" fill="#C9403A"/>
<path d="M254.927 1.88741L255.441 77.3834H229.022L228.679 25.5657H211.867L212.21 77.3834H185.963L185.276 1.88741H254.927ZM114.768 1.88741L89.2071 77.3834H118.199L120.087 67.9464H140.844L143.418 77.3834H172.581L145.133 1.88741H114.768ZM125.062 50.1019L128.664 35.5174C129.35 32.7721 129.693 30.1984 129.865 27.1099H130.894C131.237 29.8552 131.752 32.6006 132.438 35.5174L136.041 50.1019H125.062ZM30.8794 2.57373C24.875 4.46113 20.2431 6.86329 17.1552 8.40752L25.5612 27.4531C27.6199 25.5657 30.3647 23.6783 32.7664 22.6488C35.5113 21.4477 38.9423 20.5898 41.8587 20.5898C43.0596 20.5898 45.4613 20.7614 47.6915 21.6193C48.7208 22.1341 50.6079 23.1636 50.6079 25.5657C50.6079 27.7963 49.2355 28.8258 47.5199 29.3405C47.0053 29.5121 45.4613 29.8552 41.344 29.8552H32.2518L32.4233 48.7292H42.3734C43.9173 48.7292 47.3484 48.9008 48.8923 49.5872C50.7794 50.4451 51.4656 51.6461 51.4656 53.3619C51.4656 55.2493 50.6079 56.4504 48.8923 57.3083C47.3484 58.1662 44.6035 58.5094 42.3734 58.5094C39.2854 58.5094 35.8544 57.9946 32.2518 56.2788C29.1638 54.9062 26.0759 52.6756 23.6742 50.4451L14.5819 70.8633C16.469 72.0644 21.6155 74.8097 27.7914 76.5255C33.9673 78.4129 40.1432 79.0992 46.6622 79.0992C57.1269 79.0992 64.332 77.2118 69.3071 74.2949C77.0269 69.8338 80.2864 62.4558 80.2864 55.0778C80.2864 50.2735 78.914 46.6702 76.1691 43.7534C74.1105 41.5228 71.0226 39.4638 67.2484 38.2627V37.9196C70.1648 36.7185 72.7381 34.8311 74.2821 32.7721C75.826 30.8847 77.37 27.6247 77.37 22.3056C77.37 13.555 73.2528 8.23594 68.1062 4.97589C65.5329 3.26007 59.1855 0 46.8337 0C40.8294 0.171582 36.1975 0.857909 30.8794 2.57373ZM322.861 1.88741L306.564 31.3995C304.848 34.3164 302.961 39.4638 301.589 42.7239H300.559C301.246 38.7775 301.76 32.7721 301.76 28.8257L301.589 2.059H275.513L276.027 77.555H300.559L316.857 49.244C318.401 46.4987 320.631 41.1796 321.832 37.9196H322.861C322.175 41.6944 321.66 47.6998 321.66 51.8177L321.832 77.555H347.908L347.393 2.059H322.861V1.88741ZM376.385 11.496C369.523 18.5309 365.235 28.4826 365.235 40.1502C365.235 50.7882 369.18 60.9115 376.385 67.9464C383.934 75.496 394.398 78.9276 404.348 78.9276C407.779 78.9276 416.186 78.5845 423.391 75.8392L423.905 47.6997C421.675 50.2735 416.357 54.9062 408.637 54.9062C403.148 54.9062 399.717 52.6756 397.315 50.6166C394.398 47.8713 392.854 43.7534 392.854 39.807C392.854 35.8606 394.227 31.9142 396.8 28.9973C399.545 26.0804 403.491 24.3646 407.779 24.3646C414.642 24.3646 420.646 28.6542 423.734 31.9142L422.705 3.08848C416.7 1.0295 410.353 0.171592 404.692 0.171592C390.624 0.171592 381.704 6.17697 376.385 11.496ZM480.689 29.8552H467.48L467.308 1.88741H440.889L441.404 77.3834H476.915C488.752 77.3834 495.614 74.2949 499.731 70.6917C503.334 67.4317 506.422 61.7695 506.422 53.5335C506.422 46.3271 503.677 40.6649 500.075 37.0617C496.472 33.1153 489.781 29.8552 480.689 29.8552ZM478.631 57.9946C477.258 58.8526 475.371 59.1957 472.969 59.1957H467.823L467.651 46.6703H473.484C475.2 46.6703 477.258 46.8418 478.802 47.8713C479.66 48.5577 481.032 49.9303 481.032 52.6756C481.032 55.5925 480.003 57.1367 478.631 57.9946ZM2.0586 110.842L1.54395 178.102H25.9044L26.2475 130.059H47.3484L47.5199 110.842H2.0586ZM92.6382 109.469C79.7717 109.469 70.3364 114.445 64.6751 120.279C59.357 125.598 55.2398 133.834 55.0682 144.643C55.0682 155.453 59.0139 163.689 64.332 169.008C69.9933 174.842 79.4286 179.818 92.1235 179.818C104.99 179.818 114.425 174.842 120.087 169.008C125.405 163.689 129.522 155.453 129.693 144.643C129.693 134.005 125.748 125.769 120.43 120.279C114.768 114.273 105.333 109.469 92.6382 109.469ZM101.044 154.595C98.9856 156.654 95.8976 158.027 92.295 158.027C88.5209 158.027 85.6045 156.654 83.5459 154.595C81.1442 152.193 79.7717 148.418 79.7717 144.643C79.7717 141.04 81.1441 137.094 83.7174 134.52C85.2614 132.804 88.1778 131.088 92.4666 131.088C96.4123 131.088 99.3287 132.633 101.216 134.52C103.617 136.751 104.99 140.354 104.99 144.643C104.99 148.933 103.274 152.365 101.044 154.595ZM139.3 110.842L139.129 132.633L152.853 132.118L152.51 178.102H176.527L176.87 132.118L190.594 132.633L190.766 110.842H139.3ZM237.6 109.469C224.733 109.469 215.298 114.445 209.637 120.279C204.319 125.598 200.201 133.834 200.03 144.643C200.03 155.453 203.976 163.689 209.294 169.008C214.955 174.842 224.39 179.818 237.085 179.818C249.951 179.818 259.387 174.842 265.048 169.008C270.366 163.689 274.483 155.453 274.655 144.643C274.655 134.005 270.709 125.769 265.391 120.279C259.73 114.273 250.295 109.469 237.6 109.469ZM246.006 154.595C243.947 156.654 240.859 158.027 237.257 158.027C233.482 158.027 230.566 156.654 228.507 154.595C226.106 152.193 224.733 148.418 224.733 144.643C224.733 141.04 226.277 137.094 228.679 134.52C230.223 132.804 233.139 131.088 237.428 131.088C241.545 131.088 244.462 132.633 246.177 134.52C248.579 136.751 249.951 140.354 249.951 144.643C249.951 148.933 248.236 152.365 246.006 154.595ZM335.899 143.614L336.071 143.099C338.472 142.241 340.703 140.525 341.903 138.981C344.134 136.236 344.82 132.976 344.82 129.887C344.82 122.166 341.389 118.22 339.845 116.676C334.527 111.7 325.606 111.013 319.773 111.013H290.438L289.923 178.273H322.69C328.008 178.273 334.87 177.93 340.531 173.984C344.82 170.895 347.908 165.748 347.908 159.228C347.908 154.767 346.364 150.992 343.104 147.904C340.874 145.673 338.644 144.3 335.899 143.614ZM322.69 160.772C321.146 161.802 318.915 161.802 317.543 161.802H312.568V150.649H317.886C319.259 150.649 321.66 150.82 323.204 152.021C324.234 152.879 324.92 154.424 324.92 155.968C324.92 158.542 323.891 159.914 322.69 160.772ZM312.74 126.971H316.514C317.372 126.971 319.602 127.142 320.974 128C321.489 128.515 322.518 129.544 322.518 131.603C322.518 133.491 321.832 134.52 321.146 135.206C319.945 136.408 317.886 136.751 316.514 136.751H312.74V126.971ZM378.959 110.842L355.113 178.102H380.846L382.733 169.694H401.432L403.662 178.102H429.567L406.064 110.842H378.959ZM387.536 153.909L390.967 141.04C391.654 138.638 391.997 136.236 392.168 133.491H393.026C393.369 135.893 393.712 138.467 394.227 141.04L397.315 153.909H387.536ZM466.793 109.469C457.015 109.469 450.496 112.729 446.207 116.847C442.605 120.45 439.86 125.769 439.002 131.775H461.818C461.818 130.231 462.162 128.172 463.191 126.971C463.534 126.627 464.563 125.598 466.622 125.598C467.823 125.598 468.681 125.941 469.538 126.627C470.568 127.657 470.911 129.029 470.739 130.402C470.739 132.976 469.881 134.692 468.681 135.721C466.965 137.265 464.735 137.609 463.191 137.609C461.304 137.609 459.76 137.265 458.387 136.751L458.216 152.021C461.132 152.536 463.706 152.879 466.965 152.879C472.626 152.879 481.719 152.365 487.38 146.359C490.811 142.928 492.869 137.609 492.869 131.432C492.869 123.882 489.61 119.078 486.865 116.332C483.091 112.901 476.743 109.469 466.793 109.469ZM455.643 160.772C453.584 162.831 452.555 165.748 452.383 168.15C452.383 170.724 453.412 173.641 455.471 175.528C458.044 178.102 462.162 179.303 465.593 179.303C469.195 179.303 473.141 178.102 475.886 175.528C477.944 173.469 478.974 170.552 479.145 168.15C479.145 165.748 478.116 162.831 476.057 160.772C473.484 158.198 469.367 156.997 465.936 156.997C462.333 156.826 458.216 158.027 455.643 160.772Z" fill="white"/>
</svg>
