<svg width="183" height="98" viewBox="0 0 183 98" fill="none" xmlns="http://www.w3.org/2000/svg">
<path d="M164.879 76.2873H168.347C170.136 76.2873 171.59 76.7347 172.597 77.4059V76.511L164.879 68.6809V76.2873Z" fill="#3C68B4"/>
<path d="M167.676 83.7818C168.011 83.5581 168.347 83.1106 168.347 82.4395C168.347 81.6565 168.011 81.3209 167.787 81.0972C167.34 80.7616 166.781 80.7616 166.333 80.7616H164.767V84.1174H166.221C166.781 84.1174 167.34 84.1174 167.676 83.7818Z" fill="#3C68B4"/>
<path d="M122.597 68.7928V75.9517C122.597 76.2873 122.597 76.511 122.597 76.8466C122.597 76.9584 122.597 77.1822 122.597 77.294C122.597 77.5177 122.597 77.7414 122.485 77.9652C122.485 78.1889 122.373 78.4126 122.373 78.6363C122.373 78.9719 122.261 79.3074 122.261 79.643H122.485C122.82 78.7482 123.38 77.4059 123.827 76.6229L126.288 72.3722L122.597 68.7928Z" fill="#3C68B4"/>
<path d="M100.784 76.3991C101.455 76.3991 102.35 76.2873 102.91 76.1754V72.9315L98.6589 68.6809V74.162C98.6589 74.2738 98.6589 74.4975 98.6589 74.6094V74.7213C98.6589 74.8331 98.6589 75.0568 98.7708 75.1687C98.7708 75.2805 98.7708 75.2806 98.8827 75.3924C98.8827 75.3924 98.8827 75.5043 98.9945 75.5043C99.1064 75.6161 99.1064 75.728 99.2182 75.8398C99.5538 76.3991 100.337 76.3991 100.784 76.3991Z" fill="#3C68B4"/>
<path d="M92.7305 16.4431H92.0594C92.0594 18.4566 91.7238 20.2463 91.2764 21.9242L88.9273 31.4321H96.0863L93.7372 21.9242C93.2898 20.1345 92.9542 18.2329 92.7305 16.4431Z" fill="#3C68B4"/>
<path d="M145.416 15.3246C145.416 17.5617 145.416 19.3515 145.08 21.4768H145.416C146.422 18.6803 147.094 17.5617 147.988 15.8839L156.378 0L146.646 9.73166L145.416 12.1925V15.3246Z" fill="#3C68B4"/>
<path d="M77.406 74.3857C77.6298 74.945 77.8535 75.5043 77.9653 76.1754H78.1891C78.3009 75.5043 78.5246 74.8331 78.6365 74.2738L79.1958 72.8197L75.057 68.6809L77.406 74.3857Z" fill="#3C68B4"/>
<path d="M18.6804 58.9493L25.8393 51.6785L29.9781 58.9493H50.6718L58.39 51.231L55.8173 58.9493H74.7213L80.8735 52.7971H89.5985L91.2764 58.9493H110.292L118.905 50.3362L119.017 58.9493H136.131L143.29 51.6785L147.429 58.9493H168.123L177.855 49.2176H157.161L147.988 33.4456C147.094 31.9914 146.311 30.2017 145.639 28.7476H145.304C145.639 30.4254 145.751 31.7677 145.751 33.4456L145.863 49.3295H128.637L128.301 0.111858L118.57 9.84352L118.793 46.1974L119.912 49.4413H100.896L99.2183 43.2891H85.6834L84.3411 49.2176H65.4371L82.2158 0L72.4842 9.73166L59.5086 47.9872L60.4035 49.2176H39.7097L30.5374 33.4456C29.6425 31.9914 28.8595 30.2017 28.1883 28.7476H27.8528C28.1883 30.4254 28.1883 31.7677 28.3002 33.4456V49.2176H11.1859L10.8503 0L1.11865 9.73166L1.45423 58.9493H18.6804Z" fill="#3C68B4"/>
<path d="M28.0765 15.3246C28.0765 17.5617 28.0765 19.3515 27.741 21.4768H28.0765C29.0833 18.6803 29.7544 17.5617 30.6493 15.8839L39.0386 0L29.307 9.73166L28.0765 12.1925V15.3246Z" fill="#3C68B4"/>
<path d="M157.832 72.4841L154.029 68.7928V75.3924L149.89 75.1687V82.9988L149.778 89.0391H142.619L150.337 96.8692H157.608L157.72 82.9988L157.832 72.4841Z" fill="#3C68B4"/>
<path d="M13.8704 81.8802C14.5416 81.209 14.989 80.0905 15.1009 78.86C15.1009 77.6296 14.6534 76.511 13.9823 75.8398C13.423 75.2806 12.5281 74.8331 11.2977 74.8331C9.9554 74.8331 9.17239 75.3924 8.6131 75.8398C8.50124 75.9517 8.38938 76.1754 8.27752 76.2873C8.27752 76.3991 8.16566 76.3991 8.16566 76.511C7.94195 76.9584 7.71823 77.4059 7.60637 77.9651C7.60637 78.077 7.60637 78.077 7.60637 78.1889C7.60637 78.4126 7.49451 78.6363 7.49451 78.86C7.49451 79.0837 7.49451 79.3074 7.60637 79.5312C7.60637 79.643 7.60637 79.643 7.60637 79.7549C7.60637 79.9786 7.71823 80.2023 7.71823 80.3142V80.426C7.71823 80.426 7.71823 80.5379 7.83009 80.5379C7.94195 80.7616 8.05381 81.0972 8.27752 81.3209C8.38938 81.4327 8.50124 81.6565 8.6131 81.7683C9.17239 82.3276 10.1791 82.7751 11.2977 82.7751C12.4163 82.7751 13.1993 82.5513 13.8704 81.8802Z" fill="#3C68B4"/>
<path d="M55.9293 80.7616H54.3633V84.1174H55.8174C56.2649 84.1174 56.936 84.1174 57.3834 83.7818C57.719 83.5581 58.0546 83.1106 58.0546 82.4395C58.0546 81.8802 57.8309 81.5446 57.4953 81.209C57.0479 80.8735 56.2649 80.7616 55.9293 80.7616Z" fill="#3C68B4"/>
<path d="M142.619 79.4193V75.1687L141.165 75.2806L138.48 75.3924V72.596L134.789 68.7928L134.677 85.0122V89.0391H127.742V82.1039C127.742 80.9853 127.966 79.4193 128.189 78.4126H127.854C127.518 79.3075 126.959 80.7616 126.512 81.4328L125.505 83.1106L122.037 89.0391H115.438L115.55 74.3857L109.957 68.7928L109.845 89.0391H102.798V81.9921C101.344 82.2158 100.225 82.3276 98.8827 82.3276C98.6589 82.3276 98.4352 82.3276 98.2115 82.3276C98.0997 82.3276 97.9878 82.3276 97.8759 82.3276C97.7641 82.3276 97.6522 82.3276 97.5404 82.3276C97.4285 82.3276 97.2048 82.3276 97.0929 82.3276H96.9811C95.4151 81.9921 93.9609 81.6565 92.8423 80.5379C91.6119 79.1956 91.5 77.6296 91.5 76.0636V72.0367L88.368 68.7928L78.86 89.0391H71.2537L71.7011 88.2561C71.5893 88.1443 71.4774 87.9205 71.3655 87.8087L69.6877 86.1308L69.7995 86.019C69.9114 85.9071 70.0232 85.9071 70.1351 85.7952C70.247 85.7952 70.247 85.6834 70.3588 85.6834C70.4707 85.5715 70.4707 85.5715 70.5825 85.4597C70.6944 85.4597 70.6944 85.3478 70.6944 85.2359C70.8063 85.1241 70.8063 85.1241 70.9181 85.0122C71.03 84.9004 71.1418 84.6767 71.2537 84.4529V84.3411C71.2537 84.3411 71.2537 84.2292 71.3655 84.1174C71.3655 84.0055 71.4774 84.0055 71.4774 83.8936C71.4774 83.7818 71.4774 83.7818 71.5893 83.6699C71.5893 83.5581 71.5893 83.5581 71.7011 83.4462V83.3344C71.7011 83.2225 71.7011 83.2225 71.7011 83.1106C71.7011 82.9988 71.7011 82.8869 71.813 82.7751V82.6632C71.813 82.5513 71.813 82.3276 71.813 82.2158C71.813 81.9921 71.813 81.7683 71.813 81.5446C71.813 81.3209 71.7011 80.9853 71.7011 80.7616C71.7011 80.6497 71.7011 80.6498 71.7011 80.5379C71.7011 80.3142 71.5893 80.2023 71.5893 80.0905V79.8667C71.4774 79.7549 71.4774 79.5312 71.3655 79.4193C71.3655 79.4193 71.3655 79.3075 71.2537 79.3075C71.1418 79.1956 71.03 78.9719 70.9181 78.86C70.8063 78.6363 70.6944 78.5244 70.4707 78.4126L62.7525 70.5825C62.8643 70.6944 62.9762 70.8062 63.088 71.03C63.088 71.03 63.088 71.0299 63.088 71.1418C63.1999 71.2537 63.1999 71.3655 63.3117 71.4774C63.3117 71.4774 63.3118 71.5892 63.4236 71.5892C63.5355 71.7011 63.5355 71.9248 63.6473 72.0367C63.871 72.4841 63.9829 73.0434 63.9829 73.6027C63.9829 73.8264 63.9829 74.0501 63.9829 74.3857C63.9829 74.6094 63.9829 74.7213 63.9829 74.945C63.9829 75.2806 63.871 75.6161 63.7592 75.9517C63.7592 76.0636 63.6473 76.2873 63.6473 76.3991C63.6473 76.511 63.6473 76.511 63.5355 76.6229C63.4236 76.8466 63.3117 77.0703 63.1999 77.1822C62.8643 77.5177 62.4169 77.9652 61.9695 78.1889C61.7457 78.3007 61.6339 78.4126 61.4102 78.4126V78.6363C62.1932 78.86 62.8643 79.1956 63.5355 79.8667C64.3185 80.6498 64.7659 81.4328 64.8778 82.4395C64.8778 82.6632 64.9896 82.9988 64.9896 83.2225C64.9896 83.6699 64.9896 84.0055 64.8778 84.3411C64.8778 84.4529 64.8778 84.4529 64.8778 84.5648C64.7659 85.1241 64.5422 85.5715 64.3185 86.019C64.3185 86.019 64.3185 86.0189 64.3185 86.1308C64.2066 86.3545 64.0948 86.4664 63.9829 86.6901L63.871 86.802C63.5355 87.1375 63.1999 87.4731 62.8643 87.6968C61.7457 88.4798 60.5153 88.8154 59.2849 88.9273C58.9493 88.9273 58.7256 88.9273 58.39 89.0391C58.39 89.0391 58.39 89.0391 58.2781 89.0391C57.9426 89.0391 57.7188 89.0391 57.4951 89.0391H47.6516L47.7635 77.294L40.7164 70.4707C40.9401 70.6944 41.052 70.9181 41.2757 71.1418C41.2757 71.1418 41.2757 71.2537 41.3875 71.2537C41.7231 71.7011 41.9468 72.3723 42.0587 73.0434V73.1553C42.1706 73.4908 42.1706 73.9383 42.1706 74.3857C42.1706 74.6094 42.1706 74.945 42.0587 75.1687C42.0587 75.5043 41.9468 75.8399 41.835 76.1754C41.7231 76.2873 41.7231 76.511 41.6113 76.6229C41.4994 76.8466 41.3875 77.0703 41.2757 77.294C41.1638 77.4059 41.1638 77.4059 41.052 77.5177L40.9401 77.6296C40.8283 77.7414 40.7164 77.7414 40.7164 77.8533C40.6045 77.8533 40.6045 77.9652 40.4927 77.9652C40.3808 77.9652 40.3808 78.077 40.269 78.077C40.0452 78.3007 39.7097 78.4126 39.3741 78.5244V78.6363C40.3808 78.9719 41.1638 79.5312 41.7231 80.0905C42.1706 80.6497 42.5061 81.3209 42.7298 81.9921V82.1039C42.8417 82.4395 42.8417 82.7751 42.8417 83.1106C42.8417 83.3344 42.8417 83.4462 42.8417 83.6699C42.8417 83.8936 42.8417 84.0055 42.7298 84.2292C42.7298 84.4529 42.618 84.6767 42.5061 85.0122C42.5061 85.1241 42.5061 85.1241 42.3943 85.2359C42.2824 85.4597 42.1706 85.6834 42.0587 86.019C41.9468 86.2427 41.7231 86.4664 41.6113 86.802C41.6113 86.9138 41.4994 86.9138 41.4994 87.0257C41.2757 87.2494 41.052 87.4731 40.8283 87.6968L40.7164 87.8087C40.4927 88.0324 40.1571 88.2561 39.8215 88.368C39.0385 88.8154 38.0318 89.151 36.9132 89.3747C36.9132 89.3747 36.9132 89.3747 36.8014 89.3747C36.5776 89.3747 36.2421 89.4865 36.0184 89.4865H35.9065C35.6828 89.4865 35.3472 89.4865 35.1235 89.5984C35.0116 89.5984 35.0116 89.5984 34.8998 89.5984C34.5642 89.5984 34.2286 89.5984 33.7812 89.5984C33.4456 89.5984 32.9982 89.5984 32.6626 89.5984C32.5507 89.5984 32.4389 89.5984 32.327 89.5984C32.1033 89.5984 31.7677 89.5984 31.544 89.4865C31.4322 89.4865 31.3203 89.4865 31.2084 89.4865C30.8729 89.4865 30.4254 89.3747 30.0899 89.2628C29.6424 89.151 29.3069 89.0391 28.8594 88.9273C27.0697 88.368 25.7274 87.585 25.1681 87.2494L27.629 81.7683C28.1883 82.3276 28.8594 82.7751 29.6424 83.2225C29.6424 83.1106 29.5306 82.8869 29.5306 82.7751C29.5306 82.6632 29.5306 82.6632 29.4187 82.5513C29.4187 82.5513 29.4187 82.5513 29.4187 82.4395C29.3069 82.1039 29.0831 81.6565 28.8594 81.3209C28.8594 81.209 28.7476 81.209 28.7476 81.0972C28.6357 80.8735 28.412 80.5379 28.3001 80.3142L28.0764 80.0905C27.8527 79.7549 27.629 79.5312 27.4053 79.3075C27.4053 79.3075 27.4053 79.3075 27.2934 79.1956L19.5752 71.3655C19.5752 71.3655 19.5752 71.3655 19.6871 71.4774C20.0226 71.813 20.2463 72.1485 20.4701 72.4841C20.4701 72.4841 20.4701 72.596 20.5819 72.596C20.8056 72.8197 20.9175 73.1553 21.1412 73.4908C21.1412 73.4908 21.1412 73.6027 21.2531 73.6027C21.4768 74.0501 21.7005 74.3857 21.8124 74.8331C21.8124 74.8331 21.8124 74.8331 21.8124 74.945C22.1479 75.728 22.3717 76.6229 22.3717 77.6296C22.3717 77.9652 22.3717 78.4126 22.3717 78.86C22.3717 79.7549 22.2598 80.5379 22.1479 81.3209C22.1479 81.4328 22.1479 81.4328 22.1479 81.4328C22.0361 81.8802 21.9242 82.2158 21.8124 82.5513C21.8124 82.6632 21.7005 82.7751 21.7005 82.8869C21.5886 83.3344 21.3649 83.6699 21.1412 84.0055C21.0294 84.2292 20.9175 84.4529 20.8056 84.5648C20.6938 84.7885 20.5819 84.9004 20.4701 85.0122C20.3582 85.1241 20.2463 85.2359 20.2463 85.3478C20.0226 85.5715 19.9108 85.7952 19.6871 86.019C19.4633 86.2427 19.2396 86.4664 18.904 86.6901C18.904 86.6901 18.7922 86.6901 18.7922 86.802C18.5685 87.0257 18.2329 87.2494 18.0092 87.3612C17.1143 87.9205 15.9957 88.4798 14.7653 88.8154C14.6534 88.8154 14.5416 88.8154 14.5416 88.9273C14.3179 89.0391 14.0941 89.0391 13.7586 89.0391C13.5349 89.0391 13.423 89.151 13.1993 89.151C12.9756 89.151 12.8637 89.151 12.64 89.2628C11.9688 89.4866 11.6333 89.4865 11.1858 89.4865C10.7384 89.4865 10.291 89.4865 9.84354 89.3747C9.73168 89.3747 9.50796 89.3747 9.3961 89.2628C9.06053 89.2628 8.83681 89.151 8.50124 89.151C8.27752 89.151 8.16566 89.0391 8.05381 89.0391C7.83009 88.9273 7.60637 88.9273 7.38266 88.8154C7.2708 88.8154 7.04708 88.7035 6.93522 88.5917C6.71151 88.4798 6.48779 88.4798 6.37593 88.368C6.26407 88.2561 6.04036 88.2561 5.9285 88.1443C5.70478 88.0324 5.59293 87.9205 5.36921 87.9205C5.25735 87.8087 5.14549 87.8087 4.92178 87.6968C4.80992 87.585 4.5862 87.4731 4.47434 87.3612C4.36249 87.2494 4.25063 87.1375 4.13877 87.0257C4.02691 86.9138 3.80319 86.802 3.69134 86.6901C3.57948 86.5782 3.46762 86.4664 3.35576 86.3545C3.2439 86.2427 3.13205 86.1308 3.02019 86.019L10.7384 93.849C12.4163 95.5269 15.2127 96.981 19.0159 96.981C22.8191 96.981 25.7274 95.5269 27.4053 93.7372C27.629 93.5135 27.8527 93.2897 27.9646 93.066C28.1883 92.8423 28.3001 92.6186 28.412 92.3949C28.412 92.3949 28.5239 92.283 28.5239 92.1712C28.6357 91.9474 28.7476 91.8356 28.8594 91.6119C28.9713 91.3881 29.0831 91.1644 29.195 91.0526L32.9982 94.8558C33.5575 95.1913 34.8998 95.8625 36.4658 96.4218C38.1437 96.981 39.7097 97.0929 41.4994 97.0929C44.2959 97.0929 46.1974 96.6455 47.6516 95.8625C47.9872 95.6387 48.2109 95.5269 48.5465 95.3032C48.6583 95.1913 48.6583 95.1913 48.7702 95.0795C48.9939 94.9676 49.1058 94.7439 49.3295 94.5202L49.4413 94.4083C49.4413 94.4083 49.4413 94.2965 49.5532 94.2965C49.7769 94.0727 49.8888 93.849 50.0006 93.6253C50.1125 93.4016 50.2243 93.1779 50.3362 92.9542C50.3362 92.8423 50.3362 92.8423 50.4481 92.7304C50.5599 92.6186 50.5599 92.3949 50.5599 92.1712C50.5599 92.1712 50.5599 92.1712 50.5599 92.0593V91.9474L55.3698 96.7573H65.2133C66.7794 96.7573 68.9047 96.6455 70.5825 95.415C70.8062 95.3032 70.9181 95.1913 71.03 94.9676L71.1418 94.8558C71.2537 94.7439 71.3655 94.632 71.4774 94.5202C71.4774 94.5202 71.4774 94.5202 71.5893 94.4083C71.5893 94.4083 71.5893 94.2965 71.7011 94.2965C71.813 94.0727 71.9248 93.9609 72.0367 93.7372C72.0367 93.7372 72.0367 93.6253 72.1485 93.6253C72.1485 93.6253 72.1485 93.6253 72.1485 93.5134C72.2604 93.2897 72.3723 93.066 72.4841 92.8423C72.596 92.6186 72.596 92.3949 72.7078 92.1712V92.0593C72.7078 91.8356 72.8197 91.7237 72.8197 91.5V91.3881C72.8197 91.2763 72.8197 91.0526 72.8197 90.9407C72.8197 90.717 72.8197 90.6051 72.8197 90.3814C72.8197 90.2696 72.8197 90.2696 72.8197 90.1577L79.3075 96.6455H86.9138L94.0728 81.3209L100.672 88.368C101.455 89.151 102.462 89.5984 103.581 89.8221L110.516 96.7573H117.563V91.1644L123.156 96.7573H129.756L131.881 93.1779L135.46 96.7573H142.395L142.619 79.4193Z" fill="#3C68B4"/>
<path d="M183 89.7103C183 89.5984 183 89.5984 183 89.7103C183 89.3747 182.888 89.151 182.888 88.8154C182.888 88.7035 182.888 88.7035 182.888 88.5917C182.776 88.368 182.776 88.1442 182.664 87.9205C182.553 87.6968 182.441 87.4731 182.329 87.2494C182.329 87.1375 182.217 87.1375 182.217 87.0257C182.105 86.9138 181.993 86.6901 181.993 86.5782C181.993 86.5782 181.993 86.4664 181.882 86.4664C181.77 86.2427 181.658 86.1308 181.434 86.0189L173.716 78.1889C173.828 78.3007 174.051 78.5244 174.163 78.7482C174.163 78.7482 174.163 78.86 174.275 78.86C174.387 79.0837 174.499 79.1956 174.611 79.4193C174.611 79.4193 174.611 79.4193 174.611 79.5312C174.946 80.2023 175.17 80.9853 175.282 81.8802V81.9921C175.282 82.2158 175.282 82.4395 175.282 82.6632C175.282 82.8869 175.282 83.1106 175.282 83.3343C175.282 83.6699 175.17 84.0055 175.17 84.3411V84.4529C175.17 84.6766 175.058 84.9004 174.946 85.1241C174.834 85.3478 174.723 85.6834 174.611 85.9071C174.611 85.9071 174.611 86.0189 174.499 86.0189C174.387 86.2427 174.163 86.5782 174.051 86.8019C174.051 86.8019 174.051 86.9138 173.94 86.9138C173.828 87.1375 173.604 87.2494 173.492 87.3612C172.597 88.1442 171.031 88.9272 168.57 89.151C168.235 89.151 167.787 89.151 167.34 89.151H157.72L165.438 96.981H174.946C178.078 96.981 179.98 96.198 181.098 95.1913C181.21 95.0795 181.434 94.8557 181.546 94.7439C181.546 94.7439 181.546 94.7439 181.658 94.632C181.658 94.632 181.658 94.632 181.658 94.5202C181.77 94.2964 181.993 94.0727 182.105 93.849V93.7372C182.217 93.5134 182.329 93.4016 182.329 93.1779V92.9541C182.441 92.7304 182.441 92.5067 182.553 92.283V92.1711C182.664 91.8356 182.664 91.6118 182.664 91.2763C182.664 91.2763 182.664 91.2763 182.664 91.1644C182.664 90.9407 182.664 90.8288 182.664 90.6051C183 90.1577 183 89.934 183 89.7103Z" fill="#3C68B4"/>
<path d="M34.3406 83.6699C34.788 83.4462 35.0117 83.1106 35.0117 82.5513C35.0117 82.1039 34.788 81.7683 34.3406 81.5446C34.1169 81.4328 33.7813 81.4328 33.5576 81.3209C33.4457 81.3209 33.4457 81.3209 33.3339 81.3209C33.222 81.3209 33.1101 81.3209 33.1101 81.3209H32.9983C32.8864 81.3209 32.7746 81.3209 32.6627 81.3209H29.9781L32.5509 83.8936C33.222 83.8936 34.005 83.7818 34.3406 83.6699Z" fill="#3C68B4"/>
<path d="M55.4818 73.6027H54.3633V76.511H55.4818C55.9293 76.511 56.6004 76.3991 56.8241 76.0636C57.0479 75.8399 57.2716 75.5043 57.2716 74.945C57.2716 74.3857 57.0479 74.0501 56.8241 73.8264C56.4886 73.7145 55.8174 73.6027 55.4818 73.6027Z" fill="#3C68B4"/>
<path d="M30.09 76.2873H32.439C33.5576 76.2873 33.8932 76.1754 34.1169 76.1754C34.5643 76.0636 34.8999 75.8399 34.8999 75.1687C34.8999 74.7213 34.6762 74.4976 34.4524 74.2738C34.4524 74.2738 34.4524 74.2738 34.3406 74.2738C34.2287 74.2738 34.2287 74.162 34.1169 74.162C33.6694 73.8264 32.9983 73.8264 32.6627 73.8264C31.8797 73.8264 30.873 74.0501 30.2018 74.3857C29.5307 74.6094 28.8595 75.1687 28.3002 75.728L30.09 77.5177V76.2873Z" fill="#3C68B4"/>
<path d="M175.729 0L160.516 24.1614L177.743 49.2176H157.049L147.877 33.4456C146.982 31.9914 146.199 30.2017 145.527 28.7476H145.192C145.527 30.4254 145.639 31.7677 145.639 33.4456L145.751 49.3295H128.637L128.301 0.111858H145.416L145.527 15.4364C145.527 17.6736 145.527 19.4633 145.192 21.5886H145.527C146.534 18.7922 147.205 17.6736 148.1 15.9957L156.378 0H175.729ZM82.2158 0L65.437 49.2176H84.3411L85.6834 43.0654H99.2182L100.896 49.2176H119.912L102.015 0H82.2158ZM88.9273 31.4322L91.2763 21.9242C91.7237 20.1345 91.9474 18.4566 92.0593 16.4432H92.7304C92.9541 18.2329 93.2897 20.0226 93.7372 21.9242L96.0862 31.4322H88.9273ZM39.0385 0L30.6491 15.9957C29.7543 17.6736 29.0831 18.6803 28.0764 21.5886H27.7408C27.9645 19.3515 28.0764 17.5617 28.0764 15.4364L27.9645 0H10.8502L11.1858 49.2176H28.3001L28.1883 33.3337C28.1883 31.6559 28.0764 30.4254 27.7408 28.6357H28.0764C28.7476 30.0899 29.5306 31.8796 30.4254 33.3337L39.7097 49.2176H60.4034L43.1773 24.1614L58.39 0H39.0385ZM11.2977 68.3454C7.38264 68.3454 4.58618 69.7995 2.90831 71.5892C1.3423 73.1553 0 75.728 0 78.86C0 82.1039 1.23044 84.5648 2.79645 86.2427C4.47433 88.0324 7.27078 89.4865 11.1858 89.4865C14.989 89.4865 17.8973 88.0324 19.5752 86.2427C21.1412 84.6767 22.4835 82.1039 22.4835 78.86C22.4835 75.6161 21.2531 73.1553 19.687 71.5892C18.0092 69.7995 15.1009 68.3454 11.2977 68.3454ZM13.8704 81.8802C13.1993 82.4395 12.3044 82.8869 11.1858 82.8869C10.0672 82.8869 9.17237 82.4395 8.50122 81.8802C7.83007 81.0972 7.38264 79.9786 7.38264 78.86C7.38264 77.7414 7.83007 76.6229 8.50122 75.8399C8.94865 75.2806 9.84352 74.8331 11.1858 74.8331C12.4163 74.8331 13.3111 75.2806 13.8704 75.8399C14.5416 76.511 14.989 77.6296 14.989 78.86C14.989 80.2023 14.5416 81.209 13.8704 81.8802ZM29.7543 69.0165C28.1883 69.4639 26.846 70.1351 26.063 70.5825L28.1883 75.728C28.7476 75.1687 29.5306 74.7213 30.0898 74.3857C30.761 74.0501 31.7677 73.8264 32.5507 73.8264C32.8863 73.8264 33.5575 73.8264 34.1167 74.0501C34.3405 74.162 34.8998 74.4976 34.8998 75.1687C34.8998 75.728 34.4523 76.0636 34.1167 76.1754C34.0049 76.2873 33.5575 76.2873 32.4389 76.2873H29.978V81.3209H32.6626C33.11 81.3209 34.0049 81.3209 34.4523 81.5446C34.8997 81.7683 35.1235 82.1039 35.1235 82.5513C35.1235 83.1106 34.8997 83.4462 34.4523 83.6699C34.0049 83.8936 33.3337 84.0055 32.6626 84.0055C31.7677 84.0055 30.8729 83.8936 29.978 83.4462C29.195 83.1106 28.3001 82.4395 27.7408 81.8802L25.1681 87.2494C25.7274 87.585 27.0697 88.2561 28.6357 88.8154C30.3136 89.3747 31.8796 89.4865 33.6693 89.4865C36.4658 89.4865 38.3674 89.0391 39.8215 88.2561C41.835 87.0257 42.8417 85.1241 42.8417 83.1106C42.8417 81.8802 42.5061 80.8735 41.7231 80.0905C41.1638 79.5312 40.3808 78.9719 39.3741 78.6363V78.5244C40.1571 78.1889 40.8282 77.6296 41.2757 77.1822C41.7231 76.6229 42.1705 75.8399 42.1705 74.3857C42.1705 72.0367 41.1638 70.5825 39.7097 69.6877C39.0385 69.2402 37.3606 68.3454 34.0049 68.3454C32.4389 68.3454 31.2084 68.4572 29.7543 69.0165ZM61.2983 78.6363V78.4126C62.0813 78.1889 62.6406 77.6296 63.088 77.1822C63.7592 76.3991 63.9829 75.3924 63.9829 74.3857C63.9829 72.0367 62.9762 70.9181 62.4169 70.3588C60.8508 68.7928 58.1663 68.6809 56.3765 68.6809H47.5397L47.4279 88.9273H57.2714C58.8374 88.9273 60.9627 88.8154 62.6406 87.585C63.871 86.6901 64.8777 85.1241 64.8777 83.1106C64.8777 81.7683 64.4303 80.6497 63.4236 79.643C62.7524 79.3074 62.0813 78.86 61.2983 78.6363ZM57.3832 83.7818C56.9358 84.1174 56.2647 84.1174 55.8172 84.1174H54.3631V80.7616H55.9291C56.2647 80.7616 57.0477 80.7616 57.4951 81.209C57.8307 81.4328 58.0544 81.8802 58.0544 82.4395C58.0544 83.1106 57.7188 83.5581 57.3832 83.7818ZM54.3631 73.6027H55.4817C55.7054 73.6027 56.3765 73.6027 56.824 73.9383C57.0477 74.0501 57.2714 74.3857 57.2714 75.0568C57.2714 75.6161 57.0477 75.9517 56.824 76.1754C56.4884 76.511 55.8172 76.6229 55.4817 76.6229H54.3631V73.6027ZM80.7616 68.7928L78.6363 74.2738C78.4126 74.8331 78.1889 75.5043 78.1889 76.1754H77.9651C77.8533 75.5043 77.6296 74.945 77.4059 74.3857L75.0568 68.7928H67.3386L74.2738 82.8869L71.2537 89.0391H78.86L88.368 68.7928H80.7616ZM102.91 68.7928V76.2873C102.238 76.3991 101.455 76.511 100.784 76.511C100.337 76.511 99.5538 76.3991 99.1063 76.0636C98.6589 75.6161 98.6589 74.945 98.6589 74.3857V68.9046H91.6118V76.1754C91.6118 77.7414 91.7237 79.4193 92.9541 80.6497C94.5202 82.2158 96.981 82.4395 98.9945 82.4395C100.337 82.4395 101.567 82.3276 102.91 82.1039V89.151H109.957L110.068 68.9046H102.91V68.7928ZM128.301 68.7928L123.827 76.7347C123.38 77.5177 122.82 78.86 122.485 79.7549H122.261C122.485 78.6363 122.597 77.0703 122.597 76.0636V68.9046H115.661L115.549 89.151H122.149L126.623 81.5446C127.071 80.8735 127.63 79.4193 127.966 78.5244H128.301C128.078 79.5312 127.966 81.0972 127.854 82.2158V89.151H134.789L134.901 68.9046H128.301V68.7928ZM138.592 68.7928V75.3924L142.731 75.1687L142.619 89.0391H149.89L150.002 75.1687L154.141 75.3924V68.7928H138.592ZM168.347 76.2873H164.879L164.991 68.7928H157.944L157.72 89.0391H167.228C170.36 89.0391 172.262 88.2561 173.38 87.2494C174.387 86.3545 175.17 84.9004 175.282 82.6632C175.282 80.7616 174.611 79.1956 173.604 78.1889C172.597 77.1822 170.807 76.2873 168.347 76.2873ZM167.675 83.7818C167.34 84.0055 166.781 84.1174 166.109 84.1174H164.655V80.7616H166.221C166.669 80.7616 167.228 80.7616 167.675 81.0972C167.899 81.3209 168.235 81.6565 168.235 82.4395C168.347 83.1106 168.123 83.5581 167.675 83.7818Z" fill="#F1F1F0"/>
</svg>
