<svg width="735" height="192" viewBox="0 0 735 192" fill="none" xmlns="http://www.w3.org/2000/svg">
<path d="M198.096 15.0131C198.432 15.8565 198.767 18.5555 199.437 18.3868C199.773 18.3868 200.108 16.1939 200.276 15.6878C200.611 14.8444 200.946 14.001 201.282 13.1575C201.617 12.3141 201.785 12.4828 201.449 11.8081C201.114 11.1333 200.276 10.6272 199.773 10.1212C196.923 7.25354 194.073 4.38587 191.39 1.51821C193.738 5.90404 196.587 10.2899 198.096 15.0131Z" fill="#CA3F37"/>
<path d="M359.706 30.5321C359.37 33.9058 358.197 37.2796 357.359 40.4846C356.688 43.3522 355.85 46.2199 355.179 49.0876C358.7 49.0876 362.388 49.0876 365.909 49.0876C365.07 45.3765 364.232 41.6654 363.226 37.9543C362.891 36.2674 362.388 34.5806 362.053 32.8937C361.885 31.8816 361.718 30.7008 361.55 29.52C361.55 29.014 361.55 26.6524 361.047 26.315H360.376C359.706 26.4837 360.376 25.8089 360.041 26.9897C359.706 28.0018 359.873 29.52 359.706 30.5321Z" fill="#CA3F37"/>
<path d="M290.133 32.8937C293.654 29.8574 291.978 23.9534 287.786 22.6039C286.278 22.0978 284.601 22.0978 283.092 22.0978C282.59 22.0978 280.075 21.7605 279.74 22.0978C279.572 22.2665 279.74 23.9534 279.74 24.122C279.74 25.6402 279.74 26.9897 279.74 28.5079C279.74 30.7008 279.74 32.725 279.74 34.9179C282.925 34.7492 287.451 35.424 290.133 32.8937Z" fill="#CA3F37"/>
<path d="M343.948 135.792C347.803 135.792 351.827 135.792 355.683 135.792C355.683 128.37 355.515 121.116 355.515 113.694C351.995 117.237 348.474 120.779 344.953 124.321C344.618 124.659 343.947 124.996 343.78 125.502C343.445 126.177 343.78 127.526 343.78 128.37C343.947 130.9 343.948 133.262 343.948 135.792Z" fill="#CA3F37"/>
<path d="M695.334 29.1826C696.004 29.1826 696.507 29.1826 697.178 29.1826C697.178 26.9897 697.178 24.7968 697.178 22.6039C697.178 21.0857 697.178 19.7362 697.178 18.218C697.178 17.712 697.346 16.8686 697.178 16.3625C697.01 16.0251 696.34 15.5191 696.172 15.3504C695.334 14.507 694.496 13.6635 693.657 12.8201C691.478 10.6272 689.131 8.2656 686.951 6.07268C685.443 4.55451 684.102 3.20503 682.593 1.68686C682.593 10.7959 682.425 20.0736 682.425 29.1826C686.784 29.1826 691.143 29.1826 695.334 29.1826Z" fill="#CA3F37"/>
<path d="M25.0842 81.4752C32.4606 88.8974 43.0223 92.4398 53.4164 92.2711C58.4458 92.1024 63.4751 91.5964 68.3369 90.0782C68.8398 89.9095 70.5163 89.5721 70.8516 89.2347C70.8516 89.0661 70.8516 88.7287 70.8516 88.7287C71.0192 87.8853 70.8516 87.0418 71.0192 86.1984C71.1869 79.957 71.5222 73.7157 71.6898 67.4743C71.6898 66.2935 71.8575 64.944 71.8575 63.7632C71.8575 63.2572 72.0251 62.245 71.8575 61.739C71.5222 60.7269 70.181 59.8834 69.5104 59.04C65.4869 54.9916 61.4634 50.9431 57.4399 46.726C57.1046 53.9794 56.9369 61.0642 56.6017 68.3177C56.6017 69.8359 56.434 71.5228 56.434 73.0409C56.434 73.3783 56.6017 74.053 56.434 74.2217C56.0988 74.8965 54.4223 75.0652 53.7517 75.4025C47.3811 77.2581 40.1724 77.9328 33.4665 77.2581C24.9166 76.4146 16.7019 72.8722 10.6666 66.6309C15.3607 71.6914 20.2225 76.5833 25.0842 81.4752Z" fill="#CA3F37"/>
<path d="M419.724 154.685C419.724 155.866 419.724 157.215 419.724 158.396C419.724 158.902 419.556 160.589 419.892 160.926C420.227 161.264 422.406 160.926 422.742 160.926C424.418 160.926 426.095 160.926 427.771 160.926C428.945 160.926 430.286 161.095 431.459 160.926C432.13 160.757 432.13 160.589 432.633 160.083C434.477 158.227 436.153 156.54 437.998 154.685C431.962 154.685 425.759 154.685 419.724 154.685Z" fill="#CA3F37"/>
<path d="M41.3459 125.502C39.6694 128.538 37.9929 131.406 36.4841 134.442C35.8135 135.623 35.143 136.635 35.143 137.985C35.143 141.696 34.64 145.238 34.1371 148.949C35.143 148.949 35.143 148.612 35.4783 147.6C35.9812 146.25 36.4841 144.901 36.9871 143.72C37.6577 142.202 38.3282 140.684 39.1665 139.166C40.0047 137.648 40.8429 136.129 41.6812 134.611C44.6988 129.213 47.7164 123.647 50.734 118.249C51.5723 116.73 52.4105 115.381 53.0811 113.863C49.0576 117.743 45.2018 121.622 41.3459 125.502Z" fill="#CA3F37"/>
<path d="M138.582 141.696C137.408 142.877 136.067 143.72 134.726 144.395C134.055 144.732 133.217 144.901 134.223 145.238C135.061 145.576 134.558 145.407 135.061 145.07C136.402 144.564 137.743 142.708 138.582 141.696Z" fill="#CA3F37"/>
<path d="M145.622 15.1818C155.01 27.3271 155.178 45.8825 147.634 58.8713C139.419 72.7036 123.158 78.6076 107.566 77.4268C97.5077 76.5834 88.6224 72.7036 81.4136 65.9562C86.2754 70.848 91.3047 76.0773 96.1665 80.9692C107.566 92.1024 125.505 94.8014 140.257 90.2469C147.801 87.8853 154.675 83.6681 159.537 77.4268C162.89 80.8005 166.075 84.1742 169.428 87.3792C170.266 88.2227 171.104 89.0661 171.775 89.7408C171.943 89.9095 172.278 90.4156 172.613 90.4156C173.451 90.7529 175.463 90.4156 176.301 90.4156C182.169 90.4156 187.869 90.4156 193.737 90.4156C196.084 90.4156 198.598 90.4156 200.945 90.4156C201.784 90.4156 202.622 90.5843 203.292 90.0782C203.963 89.4035 204.466 88.054 204.969 87.2105C205.807 85.6924 206.645 84.1742 207.483 82.656C208.489 80.6318 209.663 78.6076 210.669 76.752C213.016 79.1136 215.363 81.4752 217.71 83.8368C219.219 85.355 220.728 86.8732 222.236 88.56C222.739 89.0661 223.578 90.2469 224.248 90.5843C224.751 90.753 225.925 90.5843 226.595 90.5843C228.272 90.5843 230.116 90.5843 231.96 90.5843C236.654 90.5843 241.348 90.5843 246.042 90.5843C249.06 90.5843 251.91 90.5843 254.927 90.5843C246.377 77.7642 237.995 64.7754 229.445 51.9552C229.277 51.6179 228.942 51.2805 228.942 50.9431C228.942 50.4371 230.116 49.2563 230.451 48.7502C232.798 45.2078 235.145 41.6654 237.492 38.123C242.186 31.0382 247.383 24.1221 251.91 16.8686C252.413 16.0252 252.413 16.1939 251.742 15.5191C250.066 13.8323 248.557 12.3141 246.88 10.6272C243.863 7.5909 240.845 4.55455 237.827 1.51821C230.619 12.1454 223.41 22.9413 216.201 33.5685C215.866 34.2432 214.357 35.5927 214.525 36.2675C214.525 36.7735 215.363 37.4483 215.531 37.9543C216.201 38.9664 216.872 39.9786 217.542 40.9907C221.901 47.5694 226.26 54.3168 230.619 60.8956C233.804 65.7875 237.157 70.6794 240.342 75.5713C232.63 75.5713 225.086 75.5713 217.375 75.5713C215.698 75.5713 214.022 75.5713 212.513 75.5713C212.01 75.5713 210.334 75.7399 209.831 75.5713C209.16 75.0652 208.489 73.0409 208.154 72.3662C206.981 70.1733 205.807 67.9804 204.801 65.9562C203.795 64.1006 202.789 62.2451 201.784 60.2208C201.113 58.8714 200.61 57.5219 200.275 56.0037C200.107 55.4976 200.275 54.9916 199.436 55.1603C199.101 55.329 198.934 56.1724 198.934 56.5098C198.598 57.5219 198.263 58.3653 197.76 59.2087C197.089 60.3895 196.419 61.5703 195.916 62.7511C193.737 66.6309 191.557 70.6794 189.545 74.5591C189.042 75.4025 189.21 75.4025 188.372 75.4025C187.031 75.5712 185.354 75.4025 184.013 75.4025C175.463 75.4025 166.913 75.4025 158.531 75.4025C160.71 72.1975 162.89 68.8238 165.069 65.6188C166.075 64.1006 166.746 63.0885 167.081 61.4016C167.919 57.5219 168.087 53.4734 167.919 49.5936C167.416 42.0028 164.734 34.4119 159.872 28.5079C157.525 25.4716 154.507 22.9413 151.825 20.0736C148.975 17.0373 145.957 14.1696 143.107 11.1333C143.61 12.6515 144.616 13.8323 145.622 15.1818Z" fill="#CA3F37"/>
<path d="M196.587 131.406C197.425 134.274 198.263 137.31 199.102 140.178C199.437 141.359 199.772 142.708 200.107 143.889C200.275 144.732 200.443 145.576 200.61 146.25C200.61 146.419 200.61 147.6 200.778 147.769C201.449 148.275 201.449 146.757 201.449 146.588C201.449 145.913 201.616 145.238 201.616 144.395C201.784 142.877 202.119 141.527 202.622 140.178C204.299 133.936 206.143 127.695 207.819 121.285C208.49 118.755 209.328 116.056 209.999 113.525C206.981 116.562 203.963 119.598 200.946 122.634C200.107 123.478 198.766 124.321 198.263 125.502C197.257 127.189 197.09 129.551 196.587 131.406Z" fill="#CA3F37"/>
<path d="M379.489 75.9085C378.316 75.9085 376.975 75.9085 375.801 75.9085C375.131 75.9085 373.119 76.2459 372.784 75.9085C372.281 75.4025 372.113 73.2096 371.945 72.5348C371.61 71.0166 371.107 69.3298 370.772 67.8116C370.604 66.9682 370.772 66.9682 370.101 66.7995C369.263 66.4621 367.922 66.7995 366.916 66.7995C363.563 66.7995 360.042 66.7995 356.69 66.7995C355.181 66.7995 353.672 66.7995 352.163 66.7995C351.828 66.7995 350.319 66.6308 349.984 66.7995C349.648 67.1369 349.481 68.655 349.481 69.1611C349.145 70.848 348.81 72.5348 348.307 74.2217C348.14 74.559 348.14 75.9085 347.804 76.0772C347.469 76.2459 346.296 76.0772 345.96 76.0772C343.11 76.0772 340.093 76.0772 337.243 76.0772C331.375 76.0772 325.507 76.0772 319.64 76.0772C322.322 78.7762 325.004 81.4751 327.687 84.1741C329.363 85.861 331.04 87.5478 332.716 89.2347C333.219 89.7407 333.722 90.4155 334.393 90.7529C335.566 91.0902 337.41 90.7529 338.584 90.7529C341.098 90.7529 343.613 90.7529 346.128 90.7529C350.822 90.7529 355.684 90.7529 360.378 90.7529C361.048 90.7529 362.054 90.9215 362.557 90.5842C362.892 90.0781 363.06 88.5599 363.228 87.8852C363.563 86.5357 363.898 85.1862 364.066 83.8367C364.234 83.4994 364.234 81.8125 364.569 81.6438C364.737 81.4751 365.407 81.6438 365.742 81.6438C368.257 81.6438 370.772 81.6438 373.119 81.6438C374.292 81.6438 375.298 81.6438 376.472 81.6438C376.807 81.6438 377.645 81.4751 377.981 81.6438C378.316 81.8125 378.651 82.3186 378.986 82.656C379.825 83.4994 380.663 84.3428 381.334 85.0175C383.01 86.7044 384.686 88.56 386.53 90.2468C387.201 90.9216 387.369 90.9215 388.375 90.9215C397.428 90.9215 406.48 90.9215 415.533 90.9215C411.342 78.7762 407.151 66.6308 402.792 54.4854C399.942 46.0511 396.925 37.6169 394.075 29.1826C393.069 26.3149 392.063 23.2786 391.057 20.4109C390.722 19.2301 390.386 17.7119 389.716 16.6998C389.381 16.0251 388.542 15.519 388.039 14.8443C386.363 13.1574 384.686 11.4706 383.01 9.78372C380.328 7.08475 377.813 4.55447 375.131 1.8555C377.981 10.2898 380.998 18.5554 383.848 26.9897C388.542 40.3158 393.069 53.642 397.763 66.9682C398.769 70.0045 399.942 73.0409 400.948 76.2459C393.907 75.9085 386.698 75.9085 379.489 75.9085Z" fill="#CA3F37"/>
<path d="M628.109 25.1341C628.109 35.93 627.941 46.7259 627.941 57.5218C627.941 63.0884 627.773 68.655 627.773 74.2217C627.773 74.559 627.941 75.4025 627.773 75.7398C627.606 76.0772 627.773 75.7398 627.27 75.9085C626.432 76.0772 625.259 75.9085 624.588 75.9085C623.079 75.9085 621.57 75.9085 619.894 75.9085C613.691 75.9085 607.488 75.9085 601.285 75.9085C603.465 78.1014 605.644 80.2943 607.823 82.4873C609.332 84.0054 611.009 85.6923 612.518 87.2105C613.523 88.2226 614.529 89.5721 615.535 90.4155C616.038 90.7529 616.206 90.7529 616.876 90.7529C618.385 90.7529 619.894 90.7529 621.403 90.7529C625.929 90.7529 630.623 90.7529 635.15 90.7529C636.826 90.7529 638.67 90.7529 640.347 90.7529C640.682 90.7529 642.023 90.9216 642.191 90.7529C642.359 90.5842 642.191 89.4034 642.191 89.2347C642.191 88.0539 642.191 86.8731 642.191 85.5236C642.191 76.9206 642.359 68.3177 642.359 59.7147C642.359 53.1359 642.526 46.5572 642.526 39.9785C647.22 40.1472 651.914 40.3158 656.608 40.6532C656.608 34.0745 656.776 27.6644 656.776 21.0857C656.776 19.7362 656.776 18.218 656.776 16.8685C656.776 16.3625 656.944 15.8564 656.608 15.519C656.106 14.6756 654.932 13.6635 654.261 12.9888C652.92 11.6393 651.411 10.1211 650.07 8.77161C647.723 6.41001 645.376 4.04841 643.197 1.8555C643.197 9.95241 643.029 18.0493 643.029 25.9775C638 25.6402 633.138 25.3028 628.109 25.1341Z" fill="#CA3F37"/>
<path d="M640.346 131.575C638.335 131.575 635.988 131.912 634.646 133.599C633.138 135.286 632.802 138.322 634.144 140.347C636.155 143.383 640.514 143.045 643.699 143.045C643.699 140.347 643.699 137.648 643.699 134.949C643.699 134.443 644.035 132.081 643.699 131.744C643.196 131.237 640.849 131.575 640.346 131.575Z" fill="#CA3F37"/>
<path d="M98.1784 40.6533C98.849 46.3886 102.202 51.6178 107.902 53.136C108.74 53.3047 111.758 54.1481 112.596 53.642C112.764 53.4734 112.596 52.1239 112.764 51.7865C112.931 50.7744 113.099 49.931 113.267 48.9189C114.105 46.0512 115.614 43.3522 117.961 41.4967C118.966 40.6533 119.972 40.1472 121.146 39.6411C121.816 39.3038 122.655 39.1351 123.325 38.9664C123.661 38.9664 123.996 38.7977 124.499 38.7977C124.834 38.7977 125.337 38.7977 125.672 38.629C125.672 38.4603 125.672 38.2916 125.672 38.123C126.008 36.7735 125.337 34.5806 125.002 33.3998C124.499 31.8816 123.828 30.5321 122.99 29.3513C119.302 24.2907 112.428 22.7726 106.728 24.9655C100.525 27.1584 97.5078 34.4119 98.1784 40.6533Z" fill="#CA3F37"/>
<path d="M528.191 29.6887C528.191 33.7371 527.52 37.7856 526.85 41.6653C527.017 41.6653 527.688 41.834 527.856 41.6653C528.191 41.4967 528.359 40.3159 528.526 39.9785C529.197 38.4603 529.867 36.7735 530.538 35.2553C531.376 33.5684 532.214 31.7129 533.053 30.026C534.729 26.9897 536.406 24.122 538.082 21.0857C538.92 19.5675 539.758 18.0494 540.764 16.3625C540.932 16.0251 541.77 15.1817 541.603 14.6756C541.435 14.0009 539.926 12.9888 539.423 12.4827C538.082 11.1332 536.741 9.78375 535.232 8.26558C532.885 5.90398 530.706 3.71106 528.359 1.34946C528.359 10.9645 528.526 20.411 528.191 29.6887Z" fill="#CA3F37"/>
<path d="M419.556 131.575C419.556 132.418 419.556 133.43 419.556 134.274C419.556 134.78 419.221 137.141 419.556 137.479C420.059 137.985 423.077 137.648 423.747 137.648C426.43 137.648 428.944 137.648 431.627 137.648C433.303 137.648 433.471 137.816 434.644 136.635C436.321 134.949 437.997 133.262 439.674 131.575C432.968 131.575 426.262 131.575 419.556 131.575Z" fill="#CA3F37"/>
<path d="M692.987 56.8471C696.843 54.3168 696.005 47.4007 691.479 46.0512C690.137 45.7138 688.629 45.7138 687.12 45.7138C686.282 45.7138 685.443 45.7138 684.605 45.7138C684.102 45.7138 683.264 45.5451 682.761 45.7138C682.258 45.8825 682.426 46.2199 682.426 47.0633C682.426 48.4128 682.426 49.7623 682.426 51.1117C682.426 53.4733 682.426 55.8349 682.426 58.1965C685.611 58.0279 690.137 58.7026 692.987 56.8471Z" fill="#CA3F37"/>
<path d="M456.271 75.9086C459.792 79.6197 463.48 83.162 467.001 86.8731C467.839 87.7166 468.845 88.7287 469.683 89.5721C470.018 89.9095 470.354 90.5842 470.689 90.5842C471.024 90.7529 471.527 90.5842 471.862 90.5842C472.868 90.5842 474.042 90.5842 475.048 90.5842C481.251 90.5842 487.454 90.5842 493.656 90.5842C494.159 90.5842 496.171 90.9216 496.339 90.4155C496.674 90.0781 496.339 88.2226 496.339 87.8852C496.339 76.9207 496.506 65.7874 496.506 54.8229C496.674 43.3522 496.674 31.7129 496.842 20.2423C496.842 19.2302 497.009 17.8807 496.842 16.6999C496.674 16.0251 496.339 15.6878 495.668 15.1817C491.477 10.9646 487.453 6.91611 483.262 2.69897C482.927 2.3616 482.592 2.02423 482.257 1.68686C482.089 15.1817 482.089 28.5079 481.921 42.0027C481.921 50.6057 481.754 59.04 481.754 67.643C481.754 70.0045 481.754 72.3662 481.754 74.7278C481.754 76.2459 481.754 76.0772 480.077 76.0772C472.365 75.9085 464.318 75.9086 456.271 75.9086Z" fill="#CA3F37"/>
<path d="M454.929 26.8211C454.929 24.6282 454.929 22.4352 454.929 20.2423C454.929 19.0615 455.265 17.0373 454.762 16.0252C453.756 14.3383 451.744 12.9888 450.403 11.6394C448.391 9.61513 446.379 7.42222 444.2 5.39799C442.859 4.0485 441.685 2.8677 440.344 1.51821C440.344 9.9525 440.176 18.2181 440.176 26.6524C445.038 26.8211 450.068 26.8211 454.929 26.8211Z" fill="#CA3F37"/>
<path d="M454.427 90.5842C454.427 84.5115 454.595 78.4388 454.595 72.1975C454.595 70.5106 454.595 68.9924 454.595 67.3056C454.595 66.7995 454.259 65.1127 454.595 64.7753C454.762 64.6066 455.265 64.7753 455.6 64.6066C456.439 64.6066 456.103 64.7753 456.271 64.2692C456.774 63.4258 456.271 61.2329 456.271 60.2208C456.271 56.8471 456.271 53.3047 456.271 49.931C451.409 49.931 446.38 49.931 441.518 49.931C440.009 49.931 439.842 49.5936 439.842 51.1117C439.842 53.642 439.842 56.1723 439.842 58.7026C439.842 61.9076 439.842 65.2813 439.842 68.4864C439.842 70.5106 440.177 73.0409 439.842 75.0651C439.842 75.4025 439.842 75.5712 439.674 75.7399C439.506 75.9085 438.165 75.7399 437.998 75.7399C435.315 75.7399 432.633 75.7399 429.951 75.7399C424.586 75.7399 419.389 75.7399 414.024 75.7399C418.718 80.4631 423.245 85.1863 427.939 89.9095C429.112 91.0903 431.124 90.4155 432.465 90.4155C436.656 90.4155 441.015 90.4155 445.206 90.4155C448.392 90.5842 451.409 90.5842 454.427 90.5842Z" fill="#CA3F37"/>
<path d="M480.412 135.792C484.268 135.792 488.291 135.792 492.147 135.792C492.147 128.37 491.98 121.116 491.98 113.694C488.459 117.237 484.939 120.779 481.418 124.321C481.083 124.659 480.412 124.996 480.244 125.502C479.909 126.177 480.244 127.526 480.244 128.37C480.412 130.9 480.412 133.262 480.412 135.792Z" fill="#CA3F37"/>
<path d="M643.867 159.914C643.029 159.745 640.682 166.324 640.346 167.168C638.838 170.71 637.329 174.252 635.652 177.795C635.149 178.976 634.814 178.638 633.305 178.638C632.467 178.638 631.797 178.638 630.958 178.638C627.102 178.638 623.079 178.638 619.223 178.638C616.038 178.638 612.685 178.638 609.5 178.638C613.02 173.072 616.541 167.505 620.061 161.938C620.564 161.095 621.067 160.251 621.738 159.408C622.241 158.565 622.744 157.89 623.414 157.215C623.75 156.709 625.426 155.697 625.426 155.191C625.594 154.516 624.755 154.685 624.253 154.516C617.547 153.167 612.685 147.769 611.511 141.021C610.338 133.936 611.679 125.84 616.876 120.442C613.691 123.647 610.338 127.02 607.153 130.225C605.476 131.912 603.8 133.599 602.458 135.623C600.279 139.334 599.441 143.72 599.441 147.937C599.441 152.829 600.614 157.721 603.967 161.264C605.308 162.613 606.985 163.794 608.661 164.637C609.667 165.143 610.841 165.481 611.847 165.818C612.685 165.987 613.858 165.818 613.355 166.662C613.188 166.999 612.685 167.336 612.35 167.674C611.511 168.517 610.673 169.529 610.003 170.541C609.835 170.879 609.667 171.216 609.332 171.553C608.158 173.409 606.817 175.433 605.644 177.289C602.961 181.506 600.279 185.723 597.597 189.94C602.961 189.94 608.158 189.94 613.523 189.94C616.373 189.94 619.223 189.94 622.073 189.94C622.408 189.94 623.079 190.109 623.414 189.94C624.085 189.603 624.923 188.422 625.426 187.916C627.605 185.723 629.952 183.361 632.132 181.168C632.132 182.855 632.132 184.374 632.132 186.06C632.132 186.566 631.797 189.603 632.299 189.94C632.802 190.278 634.814 189.94 635.485 189.94C637.496 189.94 639.676 189.94 641.688 189.94C645.544 189.94 649.567 189.94 653.423 189.94C654.093 189.94 654.429 189.94 654.932 189.771C656.105 189.097 657.279 187.41 658.285 186.398C660.967 183.699 663.649 181 666.332 178.132C660.296 178.132 654.261 178.132 648.226 178.132C647.052 178.132 645.711 178.132 644.538 178.132C643.867 178.132 644.035 178.301 643.867 177.795C643.532 176.951 643.867 175.096 643.867 174.084C643.867 172.228 643.867 170.204 643.867 168.348C643.867 165.987 643.867 162.95 643.867 159.914Z" fill="#CA3F37"/>
<path d="M561.049 125.502C559.372 128.538 557.864 131.406 556.187 134.442C555.516 135.623 554.846 136.635 554.846 137.985C554.846 141.696 554.343 145.407 553.84 148.949C554.846 148.949 554.846 148.612 555.181 147.6C555.684 146.25 556.187 144.901 556.69 143.72C557.361 142.202 558.031 140.684 558.87 139.166C559.708 137.648 560.546 136.129 561.384 134.611C564.402 129.213 567.419 123.647 570.437 118.249C571.275 116.73 572.114 115.381 572.784 113.863C568.928 117.743 564.905 121.622 561.049 125.502Z" fill="#CA3F37"/>
<path d="M492.314 156.203C487.453 156.203 482.759 156.203 477.897 156.203C477.897 158.902 477.897 161.601 477.897 164.3C477.897 164.975 477.561 167.168 477.897 167.842C478.232 168.348 480.076 167.505 480.579 168.011C480.747 168.18 480.579 169.698 480.579 169.866C480.579 171.385 480.579 172.734 480.579 174.252C480.579 177.795 480.579 181.337 480.579 184.879C480.579 186.229 480.579 187.578 480.579 189.097C480.579 189.265 480.412 190.446 480.579 190.615C480.747 190.784 482.088 190.615 482.256 190.615C483.597 190.615 484.938 190.615 486.279 190.615C489.967 190.615 493.488 190.615 497.176 190.615C498.517 190.615 500.026 190.615 501.367 190.615C501.87 190.615 502.708 190.784 503.211 190.615C503.714 190.446 504.385 189.434 504.888 188.928C506.229 187.578 507.57 186.229 508.911 184.879C510.923 182.855 512.935 180.831 514.947 178.807C508.408 178.807 501.703 178.807 495.164 178.807C494.661 178.807 492.817 179.144 492.482 178.807C492.314 178.638 492.482 177.457 492.482 177.12C492.482 173.24 492.482 169.36 492.314 165.481C492.314 162.444 492.314 159.239 492.314 156.203Z" fill="#CA3F37"/>
<path d="M548.644 77.4268C551.159 80.1257 553.841 82.656 556.356 85.355C557.865 86.8732 559.373 88.3914 560.882 89.9095C561.553 90.5843 561.553 90.5843 562.223 90.5843C566.247 90.9216 570.606 90.5843 574.629 90.5843C577.144 90.5843 579.659 90.5843 582.173 90.5843C583.347 90.5843 585.359 90.9216 586.532 90.5843C587.203 90.4156 586.867 90.7529 587.035 90.0782C587.203 89.4035 587.035 88.2227 587.035 87.5479C587.035 84.0055 587.035 80.4631 587.035 76.9207C587.035 66.7996 587.203 56.6784 587.203 46.5573C587.203 39.9786 587.37 33.2311 587.37 26.6524C590.891 30.3635 594.579 33.9059 598.1 37.617C598.603 38.123 600.782 40.822 601.285 40.3159C601.62 39.9785 601.285 37.9543 601.285 37.617C601.285 36.0988 601.285 34.5806 601.285 32.8938C601.285 30.3635 601.285 27.6645 601.285 25.1342C596.256 25.3029 591.226 25.6403 586.197 25.809C586.197 23.7847 586.197 21.7605 586.197 19.7363C586.197 18.5555 586.7 16.1939 586.029 15.1818C585.694 14.6757 585.023 14.1696 584.688 13.8323C583.85 12.9888 583.011 12.1454 582.173 11.302C580.161 9.27776 578.15 7.25353 576.138 5.22931C574.965 4.04851 573.791 2.69901 572.45 1.51821C572.282 14.8444 572.282 28.1706 572.115 41.4967C572.115 50.0997 571.947 58.7027 571.947 67.137C571.947 69.4986 571.947 72.0288 571.947 74.3904C571.947 75.9086 571.947 75.7399 570.27 75.7399C562.391 75.7399 554.344 75.7399 546.465 75.7399C546.465 67.3056 546.632 58.8714 546.632 50.6058C546.632 46.0512 547.135 41.328 548.141 36.7735C547.135 36.7735 547.135 36.7735 546.8 37.7856C546.465 38.6291 546.129 39.3038 545.962 40.1472C545.459 41.4967 544.788 42.8462 544.285 44.1957C543.279 46.5573 541.938 48.7502 540.597 50.9431C538.753 54.1482 536.741 57.3532 534.897 60.5582C532.047 65.2814 529.365 70.0046 526.515 74.8965C525.844 75.9086 526.012 75.9086 524.838 75.9086C522.324 75.9086 519.977 75.9086 517.462 75.9086C512.265 75.9086 507.068 75.9086 502.038 75.9086C504.888 78.7763 507.906 81.8126 510.756 84.6803C512.432 86.3671 514.109 88.054 515.618 89.5721C516.288 90.2469 516.456 90.5843 517.462 90.5843C522.324 90.5843 527.185 90.5843 532.047 90.5843C534.394 90.5843 536.574 90.5843 538.921 90.5843C540.094 90.5843 540.429 90.9216 540.932 89.9095C543.95 86.0298 546.297 81.6439 548.644 77.4268Z" fill="#CA3F37"/>
<path d="M455.098 113.694C452.08 116.731 448.895 119.936 445.877 122.972C445.207 123.647 443.865 124.659 443.53 125.502C443.362 126.008 443.53 127.02 443.53 127.526C443.53 136.804 443.698 145.913 443.698 155.191C443.698 165.312 443.865 175.602 443.865 185.723C443.865 186.566 443.363 190.109 444.033 190.615C444.201 190.784 445.374 190.615 445.71 190.615C446.715 190.615 447.721 190.615 448.895 190.615C451.745 190.615 454.427 190.615 457.277 190.615C459.792 190.615 462.139 190.615 464.654 190.615C465.659 190.615 466.162 190.784 467.001 190.109C468.677 188.759 470.186 186.904 471.862 185.217C473.706 183.361 475.551 181.506 477.395 179.65C477.73 179.313 478.065 178.976 478.401 178.638C472.03 178.638 465.659 178.638 459.121 178.638C458.451 178.638 456.607 178.976 455.936 178.638C455.601 178.47 455.936 178.638 455.768 178.301C455.601 177.795 455.768 176.951 455.768 176.445C455.768 175.433 455.768 174.252 455.768 173.24C455.601 158.059 455.601 142.708 455.433 127.526C455.098 122.972 455.098 118.417 455.098 113.694Z" fill="#CA3F37"/>
<path d="M395.919 113.694C392.231 117.405 388.71 120.948 385.022 124.659C384.351 125.334 384.184 125.334 384.184 126.346C384.184 127.864 384.184 129.213 384.184 130.731C384.351 143.046 384.351 155.528 384.519 167.842C384.519 173.409 384.686 179.144 384.686 184.711C384.686 185.723 384.184 190.109 385.022 190.615C385.357 190.784 386.195 190.615 386.53 190.615C387.536 190.615 388.375 190.615 389.38 190.615C392.063 190.615 394.913 190.615 397.595 190.615C404.301 190.615 411.007 190.615 417.713 190.615C420.227 190.615 422.91 190.615 425.424 190.615C426.43 190.615 428.107 190.952 428.945 190.615C429.28 190.446 429.616 189.94 429.783 189.771C430.789 188.759 431.627 187.916 432.633 186.904C434.813 184.711 437.16 182.349 439.339 180.156C439.842 179.65 440.177 179.313 440.68 178.807C433.639 178.807 426.598 178.807 419.557 178.807C414.695 178.807 409.666 178.807 404.804 178.807C402.96 178.807 401.116 178.807 399.439 178.807C398.936 178.807 397.092 179.144 396.757 178.807C396.254 178.47 396.589 176.108 396.589 175.433C396.589 171.722 396.589 168.18 396.589 164.469C396.589 154.179 396.422 144.058 396.422 133.768C396.086 127.189 395.919 120.442 395.919 113.694Z" fill="#CA3F37"/>
<path d="M355.851 156.203C350.99 156.203 346.296 156.203 341.434 156.203C341.434 158.902 341.434 161.601 341.434 164.3C341.434 164.975 341.098 167.168 341.434 167.842C341.769 168.348 343.613 167.505 344.116 168.011C344.284 168.18 344.116 169.698 344.116 169.866C344.116 171.385 344.116 172.734 344.116 174.252C344.116 177.795 344.116 181.337 344.116 184.879C344.116 186.229 344.116 187.578 344.116 189.097C344.116 189.265 343.948 190.446 344.116 190.615C344.284 190.784 345.625 190.615 345.793 190.615C347.134 190.615 348.475 190.615 349.816 190.615C353.504 190.615 357.025 190.615 360.713 190.615C362.054 190.615 363.563 190.615 364.904 190.615C365.407 190.615 366.245 190.784 366.748 190.615C367.251 190.446 367.922 189.434 368.425 188.928C369.766 187.578 371.107 186.229 372.448 184.879C374.46 182.855 376.472 180.831 378.484 178.807C371.945 178.807 365.24 178.807 358.701 178.807C358.198 178.807 356.354 179.144 356.019 178.807C355.851 178.638 356.019 177.457 356.019 177.12C356.019 173.24 356.019 169.36 355.851 165.481C355.851 162.444 355.851 159.239 355.851 156.203Z" fill="#CA3F37"/>
<path d="M727.019 149.118C721.487 153.841 713.44 154.516 706.566 154.179C705.393 154.179 704.387 154.01 703.213 154.01C702.71 154.01 700.531 153.841 700.196 153.504C699.86 152.998 700.196 150.974 700.196 150.299C700.196 148.443 700.196 146.588 700.196 144.564C700.196 142.539 700.196 140.684 700.196 138.66C704.89 140.684 711.595 139.334 712.098 133.43C712.266 130.563 710.925 127.695 707.572 127.864C705.057 128.032 703.884 130.057 703.548 132.418C703.381 133.599 703.716 133.936 702.543 133.936C701.704 133.936 701.034 133.936 700.196 133.936C699.693 133.936 699.19 133.936 698.687 133.936C695.501 133.936 692.316 133.936 689.299 133.936C686.784 133.936 684.269 133.936 681.587 133.936C682.257 128.538 684.604 123.309 688.293 119.429C685.275 122.466 682.257 125.502 679.24 128.538C678.066 129.719 676.725 131.069 675.552 132.25C672.366 135.961 670.522 140.684 669.852 145.576C673.875 145.576 678.066 145.576 682.09 145.576C684.604 145.576 687.119 145.576 689.634 145.576C690.975 145.576 691.478 145.744 692.484 144.732C693.49 143.72 694.663 142.539 695.669 141.527C696.675 140.515 697.178 139.334 698.519 140.178C695.334 143.383 692.316 146.588 689.131 149.624C688.125 150.636 688.46 151.311 688.46 152.661C688.46 155.528 688.46 158.396 688.46 161.095C688.46 162.107 688.125 163.625 688.46 164.469C688.628 164.975 688.293 164.637 689.131 164.975C690.64 165.481 692.316 165.481 693.825 165.481C691.646 167.674 689.299 170.035 687.119 172.228C683.431 175.939 681.922 181 684.94 185.723C688.628 191.627 697.346 192.639 703.046 189.603C705.896 188.085 708.075 185.386 710.254 183.024C712.601 180.662 715.116 178.132 717.463 175.77C713.104 180.156 705.393 180.494 700.196 177.457C694.663 174.252 693.154 166.661 697.513 161.77C701.704 157.046 709.751 156.54 714.948 159.577C715.787 160.083 715.787 159.914 716.29 159.408C716.625 159.071 716.96 158.733 717.295 158.396C718.469 157.215 719.81 155.866 720.984 154.685C723.163 152.492 725.51 150.13 727.689 147.937C727.522 148.612 727.187 148.949 727.019 149.118Z" fill="#CA3F37"/>
<path d="M532.383 113.694C529.365 116.731 526.347 119.936 523.162 122.972C522.491 123.647 520.983 124.659 520.647 125.502C520.48 126.008 520.647 126.852 520.647 127.358C520.647 136.298 520.815 145.238 520.815 154.179C520.815 164.469 520.983 174.59 520.983 184.88C520.983 186.229 520.983 187.579 520.983 188.928C520.983 189.097 520.815 190.278 520.983 190.446C521.318 190.784 524.336 190.446 524.838 190.446C527.521 190.446 530.203 190.446 533.053 190.446C535.4 190.446 537.915 190.446 540.262 190.446C541.268 190.446 541.771 190.615 542.441 189.94C545.962 186.735 549.315 183.024 552.668 179.65C553.003 179.313 553.338 178.976 553.674 178.638C547.471 178.638 541.268 178.638 535.065 178.638C534.73 178.638 532.885 178.976 532.718 178.638C532.55 178.638 532.718 177.963 532.718 177.963C532.55 176.108 532.718 174.421 532.718 172.566C532.55 157.384 532.55 142.202 532.383 127.02C532.383 122.635 532.383 118.249 532.383 113.694Z" fill="#CA3F37"/>
<path d="M734.899 64.4379C734.396 59.3773 732.552 54.4855 729.032 50.7744C727.69 49.4249 726.517 48.0754 725.176 46.8946C721.487 43.1835 717.967 39.6411 714.279 35.93C720.985 42.6775 721.99 53.642 718.638 62.245C715.62 69.6672 708.914 73.547 701.37 75.0651C696.341 76.0772 691.311 75.9086 686.114 75.9086C680.414 75.9086 674.547 75.9086 668.847 75.9086C664.823 75.9086 660.632 75.9086 656.608 75.9086C660.632 79.957 664.655 84.0055 668.511 88.0539C669.35 88.8973 670.355 90.4155 671.361 90.7529C672.032 90.9216 672.87 90.7529 673.541 90.7529C674.882 90.7529 676.055 90.7529 677.397 90.7529C684.438 90.7529 691.479 90.7529 698.52 90.7529C704.891 90.7529 711.429 91.0903 717.632 89.4034C722.326 88.2226 727.02 86.0297 730.205 81.9812C734.061 77.0893 735.402 70.5106 734.899 64.4379Z" fill="#CA3F37"/>
<path d="M41.8498 23.7847C32.9646 23.7847 26.4264 31.7129 27.2646 40.4846C27.9352 48.2441 34.1381 53.6421 41.6822 53.8108C41.6822 46.726 46.041 40.4846 52.9145 38.7977C59.6203 37.2796 66.4938 40.6533 71.3556 45.2078C70.8526 41.6654 70.8526 37.9543 71.1879 34.4119C71.3555 32.8937 71.6908 31.3756 71.6908 29.8574C71.6908 26.4837 71.5232 22.9413 71.5232 19.5676C71.5232 19.0615 71.6909 18.0494 71.5232 17.5433C71.3556 17.0373 70.3497 16.3625 69.8468 15.8565C67.3321 13.3262 64.985 10.9646 62.4703 8.43431C60.6262 6.57877 58.7821 4.72322 56.938 2.86768C57.1056 12.3141 57.2733 21.7605 57.4409 31.2069C53.4174 26.9897 47.7174 23.7847 41.8498 23.7847Z" fill="#CA3F37"/>
<path d="M571.779 156.709C571.779 152.661 572.115 148.612 572.785 144.732C572.282 144.732 572.115 144.732 571.779 144.901C571.444 145.238 571.276 146.25 571.109 146.757C570.606 148.106 569.935 149.624 569.432 150.974C568.762 152.492 568.091 153.841 567.253 155.191C565.577 158.227 563.732 161.263 562.056 164.3C561.05 165.987 560.044 167.336 560.044 169.36C560.044 172.565 560.044 175.602 560.044 178.807C560.044 182.181 560.044 185.723 560.044 189.097C560.044 189.434 559.877 190.446 560.044 190.615C560.379 190.784 562.056 190.615 562.391 190.615C566.079 190.615 569.6 190.615 573.288 190.615C575.132 190.615 576.976 190.615 578.821 190.615C579.826 190.615 581.168 190.784 582.006 190.615C582.676 190.446 582.844 190.109 583.347 189.603C584.688 188.253 586.029 186.904 587.203 185.554C589.382 183.361 591.729 181 593.909 178.807C587.37 178.807 580.832 178.807 574.462 178.807C573.959 178.807 572.115 179.144 571.779 178.807C571.612 178.638 571.779 177.457 571.779 177.12C571.779 173.409 571.779 169.698 571.612 165.818C571.779 162.782 571.779 159.745 571.779 156.709Z" fill="#CA3F37"/>
<path d="M185.187 150.299C184.684 148.781 184.349 147.263 184.181 145.744C184.014 144.901 184.349 142.877 183.175 143.214C183.175 151.986 181.834 160.758 180.996 169.529C180.828 171.722 180.661 173.746 180.326 175.939C180.326 176.445 180.325 178.47 179.99 178.807C179.655 178.976 177.476 178.807 176.973 178.807C174.793 178.807 172.446 178.807 170.267 178.807C165.908 178.807 161.549 178.807 157.358 178.807C158.531 171.385 159.537 164.131 160.711 156.709C162.555 145.07 164.231 133.43 166.076 121.791C166.411 119.092 166.914 116.393 167.249 113.694C165.405 115.55 163.561 117.405 161.717 119.261C160.376 120.61 159.034 121.96 157.693 123.309C157.19 123.815 156.017 124.659 155.682 125.334C155.346 126.008 155.346 127.02 155.346 127.695C155.011 129.888 154.676 132.25 154.34 134.443C152.161 149.118 149.814 163.625 147.635 178.301C146.964 182.349 146.461 186.398 145.79 190.278C151.155 190.278 156.687 190.278 162.052 190.278C163.561 190.278 164.902 190.278 166.411 190.278C166.914 190.278 167.92 190.446 168.59 190.278C168.926 190.109 169.428 189.603 169.764 189.265C170.937 188.085 172.111 186.904 173.117 185.892C175.128 183.867 177.14 181.843 179.152 179.65C179.99 182.518 180.996 185.554 181.834 188.422C182.002 189.097 182.17 190.109 182.673 190.278C183.511 190.784 185.69 190.278 186.528 190.278C188.54 190.278 190.552 190.278 192.564 190.278C193.57 190.278 195.246 190.615 196.084 190.278C196.587 190.109 197.09 189.434 197.425 189.097C198.599 187.916 199.772 186.566 201.114 185.386C203.293 183.193 205.64 180.831 207.819 178.638C204.802 178.638 201.784 178.638 198.599 178.638C197.761 178.638 196.922 178.638 196.084 178.638C195.581 178.638 194.743 178.807 194.24 178.638C193.905 178.47 193.905 178.301 193.737 177.795C191.558 170.879 189.546 164.131 187.367 157.215C186.528 155.022 185.858 152.661 185.187 150.299Z" fill="#CA3F37"/>
<path d="M219.052 149.624C218.884 148.106 218.717 146.588 218.717 145.07C218.717 144.732 218.884 143.383 218.717 143.214C218.214 142.877 218.046 144.564 218.046 144.901C217.711 146.419 217.376 147.937 216.873 149.287C216.034 152.155 215.029 155.191 214.19 158.059C213.017 161.938 211.676 165.818 210.502 169.867C209.999 171.553 208.993 173.409 208.993 175.096C208.993 176.277 209.329 177.626 209.329 178.976C209.496 181 209.831 183.024 209.999 185.217C210.167 186.735 210.167 188.591 210.502 190.109C210.67 190.952 210.502 190.615 211.34 190.784C218.214 191.121 225.255 190.784 232.128 190.784C232.967 190.784 232.967 190.784 233.637 190.278C234.978 189.097 236.152 187.747 237.325 186.566C239.84 184.036 242.355 181.506 244.702 178.976C241.517 178.976 238.331 178.976 235.146 178.976C232.631 178.976 230.284 178.976 227.77 178.976C226.093 178.976 224.249 179.313 222.74 178.976C221.902 178.807 222.237 179.144 222.07 178.301C221.734 176.783 221.734 175.264 221.567 173.915C221.064 169.192 220.561 164.469 220.058 159.745C219.89 156.203 219.387 152.829 219.052 149.624Z" fill="#CA3F37"/>
<path d="M318.633 113.694C315.615 116.731 312.43 119.936 309.412 122.972C308.742 123.647 307.401 124.659 307.065 125.502C306.898 126.008 307.065 127.02 307.065 127.526C307.065 136.804 307.233 145.913 307.233 155.191C307.233 165.312 307.401 175.602 307.401 185.723C307.401 186.566 306.898 190.109 307.568 190.615C307.736 190.784 308.91 190.615 309.245 190.615C310.251 190.615 311.257 190.615 312.43 190.615C315.28 190.615 317.963 190.615 320.812 190.615C323.327 190.615 325.674 190.615 328.189 190.615C329.195 190.615 329.698 190.784 330.536 190.109C332.212 188.759 333.721 186.904 335.398 185.217C337.242 183.361 339.086 181.506 340.93 179.65C341.265 179.313 341.601 178.976 341.936 178.638C335.565 178.638 329.195 178.638 322.657 178.638C321.986 178.638 320.142 178.976 319.471 178.638C319.136 178.47 319.471 178.638 319.304 178.301C319.136 177.795 319.304 176.951 319.304 176.445C319.304 175.433 319.304 174.252 319.304 173.24C319.136 158.059 319.136 142.708 318.968 127.526C318.633 122.972 318.633 118.417 318.633 113.694Z" fill="#CA3F37"/>
<path d="M52.0764 156.709C52.0764 152.661 52.4117 148.612 53.0823 144.732C52.5793 144.732 52.4117 144.732 52.0764 144.901C51.7411 145.238 51.5735 146.25 51.4058 146.757C50.9029 148.106 50.2323 149.624 49.7293 150.974C49.0588 152.492 48.3881 153.841 47.5499 155.191C45.8735 158.227 44.0293 161.263 42.3529 164.3C41.347 165.987 40.3412 167.336 40.3412 169.36C40.3412 172.565 40.3412 175.602 40.3412 178.807C40.3412 182.181 40.3412 185.723 40.3412 189.097C40.3412 189.434 40.1735 190.446 40.3412 190.615C40.6764 190.784 42.3529 190.615 42.6882 190.615C46.3764 190.615 49.897 190.615 53.5852 190.615C55.4293 190.615 57.2734 190.615 59.1175 190.615C60.1234 190.615 61.4646 190.784 62.3028 190.615C62.9734 190.446 63.141 190.109 63.644 189.603C64.9851 188.253 66.3263 186.904 67.4998 185.554C69.6792 183.361 72.0262 181 74.2056 178.807C67.6674 178.807 61.1293 178.807 54.7587 178.807C54.2558 178.807 52.4117 179.144 52.0764 178.807C51.9087 178.638 52.0764 177.457 52.0764 177.12C52.0764 173.409 52.0764 169.698 51.9087 165.818C52.0764 162.782 52.0764 159.745 52.0764 156.709Z" fill="#CA3F37"/>
<path d="M12.5109 113.694C9.49328 116.731 6.47565 119.936 3.29037 122.972C2.61979 123.647 1.11097 124.659 0.775681 125.502C0.608035 126.008 0.775681 126.852 0.775681 127.358C0.775681 136.298 0.943338 145.238 0.943338 154.179C0.943338 164.469 1.11099 174.59 1.11099 184.88C1.11099 186.229 1.11099 187.579 1.11099 188.928C1.11099 189.097 0.943348 190.278 1.11099 190.446C1.44629 190.784 4.4639 190.446 4.96684 190.446C7.64917 190.446 10.3315 190.446 13.1815 190.446C15.5285 190.446 18.0433 190.446 20.3903 190.446C21.3962 190.446 21.8991 190.615 22.5697 189.94C26.0902 186.735 29.4432 183.024 32.7961 179.65C33.1314 179.313 33.4667 178.976 33.802 178.638C27.5991 178.638 21.3962 178.638 15.1933 178.638C14.858 178.638 13.0139 178.976 12.8462 178.638C12.6786 178.638 12.8462 177.963 12.8462 177.963C12.6786 176.108 12.8462 174.421 12.8462 172.566C12.6786 157.384 12.6786 142.202 12.5109 127.02C12.6786 122.635 12.6786 118.249 12.5109 113.694Z" fill="#CA3F37"/>
<path d="M137.742 174.59C133.383 177.963 127.851 179.313 122.486 179.988C115.278 180.662 107.566 180.325 100.525 178.301C97.5072 177.457 94.4896 176.277 91.6396 174.758C91.1366 174.59 88.7896 173.746 88.6219 173.24C88.6219 173.071 88.7896 172.734 88.7896 172.734C88.9572 171.553 89.9631 170.204 90.2984 169.192C91.1366 167.505 91.8072 165.649 92.6454 163.962C93.8189 161.263 94.9925 158.565 96.166 155.866C101.363 160.589 108.404 163.962 115.613 162.276C118.128 161.77 120.978 159.577 119.469 156.54C118.295 154.179 114.775 154.347 112.595 154.179C111.254 154.179 110.081 154.179 108.739 154.179C107.734 154.179 106.895 154.179 105.889 154.179C105.387 154.179 104.213 154.347 103.71 154.179C103.207 153.841 103.375 152.998 103.375 152.323C103.375 150.299 103.375 148.443 103.375 146.419C103.375 143.552 103.375 140.684 103.375 137.816C105.722 137.816 108.069 137.816 110.248 137.816C112.595 137.816 116.786 138.322 118.295 135.961C119.301 134.442 118.798 132.418 117.625 131.406C116.116 130.225 113.769 129.888 111.925 129.888C106.392 129.719 101.363 132.25 97.5072 135.792C95.1601 130.394 92.6454 124.827 90.2984 119.429C86.7778 122.972 83.2572 126.514 79.7367 130.057C79.569 130.225 78.7308 130.9 78.7308 131.237C78.7308 131.575 79.4014 132.587 79.4014 132.924C80.5749 135.623 81.9161 138.491 83.0896 141.19C84.0955 143.383 84.9337 145.407 85.9396 147.6C89.7954 144.058 94.4895 141.696 99.6866 141.696C97.3395 144.058 94.9925 146.419 92.8131 148.781C91.9748 149.624 91.8072 149.624 91.8072 150.805C91.8072 152.829 91.8072 154.853 91.8072 156.709C91.8072 157.721 92.1425 159.239 91.8072 160.083C91.6395 160.42 91.1366 160.757 90.8013 161.095C90.1308 161.77 89.2925 162.613 88.6219 163.288C86.9454 164.975 84.9337 166.493 83.9278 168.686C82.419 172.228 80.7425 175.939 79.2337 179.482C78.5631 181 77.8926 182.518 77.222 184.036C77.222 184.205 76.719 184.711 76.8867 184.879C77.0543 185.386 78.7308 185.892 79.0661 186.229C86.1072 189.771 93.819 191.796 101.698 191.964C108.404 192.133 115.445 191.796 121.481 188.928C125.672 187.072 128.522 183.867 131.707 180.662C134.222 178.132 136.904 175.433 139.419 172.903C139.083 173.578 138.413 174.084 137.742 174.59Z" fill="#CA3F37"/>
<path d="M332.381 39.4724C331.71 33.0624 329.196 27.6644 324.669 23.1099C321.149 19.5675 317.796 16.0251 314.275 12.6514C313.102 11.4706 312.096 10.4585 310.922 9.27771C318.634 17.0373 320.143 30.5321 315.616 40.4846C313.437 45.0391 309.916 48.9188 305.222 50.9431C300.528 53.136 295.331 53.642 290.134 53.642C287.955 53.642 285.775 53.642 283.596 53.642C282.758 53.642 281.752 53.642 280.913 53.642C280.746 53.642 279.572 53.4734 279.572 53.642C279.405 53.8107 279.572 55.6663 279.572 56.0036C279.572 57.8592 279.572 59.8834 279.572 61.739C279.572 65.9561 279.572 70.0046 279.405 74.2217C279.405 74.5591 279.572 75.9085 279.405 76.0772C279.069 76.4146 277.225 76.0772 276.722 76.0772C269.011 76.0772 261.131 76.0772 253.42 76.0772C256.102 78.7762 258.952 81.6439 261.634 84.3428C263.311 86.0297 264.987 87.7166 266.664 89.4034C267.166 89.9095 267.669 90.5842 268.34 90.7529C269.849 91.0903 271.693 90.7529 273.202 90.7529C275.884 90.7529 278.566 90.7529 281.249 90.7529C283.931 90.7529 286.446 90.7529 289.128 90.7529C290.134 90.7529 291.14 90.7529 292.146 90.7529C292.481 90.7529 293.487 90.9216 293.822 90.7529C294.325 90.4155 294.158 89.5721 294.158 88.8974C294.158 86.5358 294.158 84.3428 294.158 81.9812C294.158 79.2823 294.158 76.4146 294.158 73.7156C294.158 72.7035 294.158 71.6914 294.158 70.5106C294.158 70.1733 293.99 68.9924 294.158 68.6551C294.493 68.149 296.672 68.4864 297.343 68.4864C300.025 68.4864 302.54 68.4864 305.222 68.4864C311.593 68.4864 318.131 67.643 323.496 63.7632C324.669 62.9198 324.669 61.9076 325.172 60.7269C326.01 58.5339 326.681 56.341 327.519 53.9794C329.028 49.5936 330.704 45.0391 332.213 40.6533C332.213 39.9785 332.213 39.6411 332.381 39.4724Z" fill="#CA3F37"/>
<path d="M259.454 113.694C255.766 117.405 252.245 120.948 248.557 124.659C247.887 125.334 247.719 125.334 247.719 126.346C247.719 127.864 247.719 129.213 247.719 130.731C247.887 143.046 247.887 155.528 248.054 167.842C248.054 173.409 248.222 179.144 248.222 184.711C248.222 185.723 247.719 190.109 248.557 190.615C248.892 190.784 249.731 190.615 250.066 190.615C251.072 190.615 251.91 190.615 252.916 190.615C255.598 190.615 258.448 190.615 261.131 190.615C267.836 190.615 274.542 190.615 281.248 190.615C283.763 190.615 286.445 190.615 288.96 190.615C289.966 190.615 291.642 190.952 292.48 190.615C292.816 190.446 293.151 189.94 293.319 189.771C294.325 188.759 295.163 187.916 296.169 186.904C298.348 184.711 300.695 182.349 302.875 180.156C303.377 179.65 303.713 179.313 304.216 178.807C297.175 178.807 290.133 178.807 283.092 178.807C278.231 178.807 273.201 178.807 268.339 178.807C266.495 178.807 264.651 178.807 262.975 178.807C262.472 178.807 260.628 179.144 260.292 178.807C259.789 178.47 260.125 176.108 260.125 175.433C260.125 171.722 260.125 168.18 260.125 164.469C260.125 154.179 259.957 144.058 259.957 133.768C259.622 127.189 259.622 120.442 259.454 113.694Z" fill="#CA3F37"/>
<path d="M283.092 137.647C287.283 137.647 291.475 137.647 295.666 137.647C297.342 137.647 297.342 137.479 298.516 136.298C300.024 134.78 301.533 133.262 303.042 131.743C296.336 131.743 289.63 131.743 282.925 131.743C283.092 133.599 283.092 135.623 283.092 137.647Z" fill="#CA3F37"/>
<path d="M283.26 154.685C283.26 155.866 283.26 157.215 283.26 158.396C283.26 158.902 283.092 160.589 283.427 160.926C283.762 161.264 285.942 160.926 286.277 160.926C287.954 160.926 289.63 160.926 291.307 160.926C292.48 160.926 293.821 161.095 294.995 160.926C295.665 160.757 295.665 160.589 296.168 160.083C298.012 158.227 299.689 156.54 301.533 154.685C295.498 154.685 289.462 154.685 283.26 154.685Z" fill="#CA3F37"/>
<path d="M39.3341 0C42.1841 0 45.2018 0.168675 48.0518 0.674733C49.5606 0.843418 51.0694 1.18079 52.5782 1.51816C53.2488 1.68685 53.9194 1.85554 54.59 2.02422C54.9253 2.19291 56.7693 2.3616 56.937 2.69897C57.1046 2.86765 56.937 3.71108 56.937 3.87976C56.937 4.89188 56.937 5.904 56.937 6.91611C57.1046 13.1575 57.1047 19.3989 57.2723 25.6402C57.2723 27.3271 57.2723 29.1826 57.4399 30.8695C53.7517 27.1584 48.89 24.1221 43.5253 23.616C37.6577 22.9413 31.9577 25.8089 29.1077 31.0382C26.2577 36.2674 26.4254 43.0148 29.946 47.738C33.1312 52.1239 38.6636 53.9794 43.8606 53.4734C49.0576 52.9673 53.7517 50.2683 57.2723 46.5573C57.1047 52.9673 56.7693 59.5461 56.6017 65.9561C56.6017 67.8117 56.4341 69.4985 56.4341 71.3541C56.4341 72.0288 56.6017 73.547 56.2664 74.053C56.0988 74.5591 54.5899 74.7278 54.087 74.8964C52.2429 75.4025 50.3988 75.9086 48.5547 76.2459C45.5371 76.752 42.3518 77.0894 39.1665 77.0894C25.7548 77.4267 12.1755 71.354 5.302 59.3774C-1.73913 47.232 -1.73914 31.2069 5.13435 18.8928C12.0078 6.91611 25.2519 0 39.3341 0ZM112.26 0C95.9985 0 80.0722 8.09691 73.8693 23.7847C67.6664 39.4725 71.6898 59.04 85.4368 69.3298C99.0162 79.451 119.301 80.2944 134.054 72.0288C148.975 63.7632 155.513 46.3886 152.328 29.8574C148.975 13.4949 135.731 2.69897 119.637 0.337366C116.954 0.168681 114.607 0 112.26 0ZM121.481 49.7623C117.122 54.1481 109.746 54.8229 104.548 51.6178C99.3515 48.4128 97.3397 41.6654 98.3456 35.7614C99.3515 30.0261 103.207 25.1342 109.075 23.9534C114.775 22.9413 120.978 25.1342 123.828 30.5321C127.181 36.6048 126.342 45.0391 121.481 49.7623ZM207.148 1.68686C205.304 5.56663 203.46 9.44639 201.448 13.1575C201.28 13.6635 200.945 14.0009 200.777 14.507C200.61 15.013 200.274 15.6878 200.107 16.1938C199.939 16.6999 199.939 17.712 199.604 18.0494C198.933 18.8928 198.766 17.712 198.598 17.0373C198.263 15.8565 197.927 14.8443 197.424 13.6635C196.586 11.808 195.58 10.1211 194.742 8.43429C194.072 7.0848 193.401 5.90399 192.73 4.55451C192.395 3.71108 191.892 2.53028 191.389 1.85554C190.886 1.34948 190.048 1.51816 189.21 1.51816C184.013 1.51816 178.816 1.51816 173.619 1.51816C169.26 1.51816 165.069 1.51816 160.71 1.51816C167.751 12.314 174.96 22.9413 182.001 33.7371C182.504 34.4119 183.677 35.5927 183.51 36.4361C183.51 36.9422 182.672 37.7856 182.336 38.123C181.666 39.1351 180.995 40.1472 180.325 41.1593C175.966 47.738 171.607 54.4855 167.248 61.0642C164.063 65.9561 160.878 70.848 157.525 75.7399C165.069 75.7399 172.613 75.7399 179.989 75.7399C181.833 75.7399 183.845 75.7399 185.689 75.7399C186.192 75.7399 187.533 76.0772 188.036 75.7399C188.707 75.4025 189.21 73.547 189.545 72.8722C190.719 70.6793 191.892 68.6551 193.066 66.4622C194.91 62.9198 196.754 59.5461 198.263 55.835C198.933 54.1481 199.269 55.6663 199.604 56.6784C199.771 57.5218 200.107 58.1966 200.442 59.04C201.113 60.5582 201.951 61.9077 202.621 63.2571C204.633 67.1369 206.645 70.848 208.657 74.7278C209.16 75.5712 208.992 75.4025 209.663 75.5712C211.004 75.7399 212.513 75.5712 214.021 75.5712C222.571 75.5712 231.121 75.5712 239.671 75.5712C232.462 64.6066 225.254 53.8107 218.045 42.8462C216.704 40.8219 215.363 38.7977 214.021 36.7735C213.351 35.7614 213.686 35.7614 214.357 34.7493C218.38 28.8453 222.236 22.9413 226.26 17.0373C229.78 11.808 233.301 6.57873 236.821 1.34948C227.936 1.34948 219.051 1.34948 210.333 1.34948C209.663 1.68685 208.489 1.68686 207.148 1.68686ZM289.127 1.68686C281.415 1.68686 273.703 1.68686 265.992 1.68686C262.136 1.68686 258.448 1.68686 254.592 1.68686C254.089 1.68686 253.921 1.51817 253.754 1.85554C253.586 2.19291 253.754 3.37371 253.754 3.71108C253.586 21.5918 253.418 39.6411 253.418 57.5218C253.418 63.5945 253.251 69.8359 253.251 75.9086C260.795 75.9086 268.339 75.9086 275.883 75.9086C276.386 75.9086 278.733 76.2459 279.236 75.9086C279.571 75.7399 279.403 74.2217 279.403 73.8843C279.403 69.3298 279.403 64.7753 279.571 60.2208C279.571 58.3652 279.571 56.5097 279.571 54.6542C279.571 53.642 279.236 53.4734 280.409 53.4734C284.433 53.3047 288.456 53.4734 292.48 53.4734C298.683 53.4734 305.221 51.9552 310.083 47.9067C314.777 43.8583 317.291 38.123 317.962 32.0503C318.8 24.2907 317.291 16.0251 312.094 10.1211C306.059 3.5424 297.677 1.68686 289.127 1.68686ZM290.133 32.8937C287.45 35.5927 283.092 34.9179 279.571 34.9179C279.571 32.8937 279.571 30.7008 279.571 28.6766C279.571 27.1584 279.571 25.8089 279.571 24.2907C279.571 23.9534 279.403 22.2665 279.571 22.0978C279.906 21.7605 282.421 22.0978 282.756 22.0978C284.265 22.0978 285.774 22.0978 287.45 22.6039C289.462 23.2786 290.971 24.4594 291.642 26.4837C292.312 28.5079 291.809 31.2069 290.133 32.8937ZM345.624 1.68686C342.606 10.1211 339.756 18.3867 336.738 26.821C332.044 40.1472 327.35 53.4734 322.656 66.7995C321.65 69.8359 320.477 72.8722 319.471 75.9086C326.512 75.9086 333.553 75.9086 340.594 75.9086C342.271 75.9086 344.115 75.9086 345.791 75.9086C346.127 75.9086 347.635 76.0773 347.803 75.9086C347.971 75.7399 347.971 74.8965 348.138 74.5591C348.306 73.547 348.641 72.3662 348.809 71.3541C348.977 70.3419 349.312 69.3298 349.479 68.3177C349.479 67.9803 349.647 66.7995 349.815 66.6309C350.15 66.2935 351.827 66.6309 352.329 66.6309C354.341 66.6309 356.353 66.6309 358.365 66.6309C360.712 66.6309 362.891 66.6309 365.238 66.6309C366.579 66.6309 368.423 66.2935 369.765 66.6309C369.932 66.6309 370.1 66.6309 370.268 66.6309C370.603 66.7995 370.603 68.3177 370.771 68.6551C371.273 70.6793 371.776 72.7035 372.279 74.8964C372.615 75.9086 372.279 75.9086 373.285 75.9086C374.626 76.0773 375.968 75.9086 377.309 75.9086C385.188 75.9086 393.067 75.9086 401.114 75.9086C396.253 62.0763 391.559 48.2441 386.697 34.2432C383.679 25.6402 380.829 17.2059 377.812 8.60297C377.141 6.41005 376.47 4.21713 375.632 2.19291C375.465 2.02422 375.465 1.51816 375.297 1.51816C374.794 1.18079 372.782 1.51816 372.112 1.51816C363.394 1.68685 354.509 1.68686 345.624 1.68686ZM355.012 49.0875C356.185 44.3643 357.527 39.6411 358.7 34.9179C359.035 33.7371 359.203 32.5563 359.538 31.3755C359.706 30.7008 359.706 29.8574 359.874 29.1826C359.874 28.6766 359.706 26.821 360.041 26.4837H360.879C361.047 26.6523 361.047 27.4958 361.215 28.0018C361.382 29.6887 361.718 31.3755 362.053 33.0624C362.556 35.7614 363.226 38.2917 363.897 40.8219C364.568 43.5209 365.238 46.3886 365.909 49.0875C362.221 49.0875 358.532 49.0875 355.012 49.0875ZM456.773 1.68686C456.773 7.75954 456.605 13.6635 456.605 19.7362C456.605 21.4231 456.605 22.9413 456.605 24.6281C456.605 24.9655 456.773 26.6523 456.605 26.821C456.438 26.9897 455.097 26.821 454.929 26.821C453.253 26.821 451.576 26.821 449.732 26.821C446.547 26.821 443.361 26.821 440.176 26.821C440.176 18.3867 440.344 10.1211 440.344 1.68686C432.967 1.68686 425.758 1.68686 418.382 1.68686C417.544 1.68686 415.532 1.34949 414.694 1.68686C414.191 1.85554 414.526 1.51816 414.359 2.19291C414.191 2.86765 414.359 3.71108 414.359 4.38583C414.359 5.56663 414.359 6.74742 414.359 8.09691C414.191 25.4715 414.023 43.0148 414.023 60.3895C414.023 65.6187 414.023 70.848 413.856 76.0772C418.382 76.0772 422.741 76.0772 427.267 76.0772C430.285 76.0772 433.135 76.0772 436.153 76.0772C436.656 76.0772 439.338 76.4146 439.673 76.0772C439.841 75.9086 439.673 74.7278 439.673 74.3904C439.673 73.2096 439.673 72.0288 439.673 70.848C439.673 67.643 439.673 64.6066 439.673 61.4016C439.673 58.5339 439.673 55.6663 439.673 52.7986C439.673 52.1239 439.505 51.1118 439.673 50.437C439.841 49.931 439.505 50.2683 440.008 50.0997C440.847 49.7623 442.523 50.0997 443.529 50.0997C445.205 50.0997 447.05 50.0997 448.726 50.0997C451.073 50.0997 453.588 50.0997 455.935 50.0997C455.935 58.7026 455.767 67.3056 455.767 75.9086C462.976 75.9086 470.352 75.9086 477.561 75.9086C478.399 75.9086 480.411 76.2459 481.249 75.9086C481.752 75.7399 481.417 76.0772 481.585 75.4025C481.752 74.7278 481.585 73.8843 481.585 73.2096C481.585 72.0288 481.585 70.848 481.585 69.4985C481.752 52.1239 481.92 34.5806 481.92 17.2059C481.92 11.9767 481.92 6.74742 482.088 1.51816C474.041 1.68685 465.323 1.68686 456.773 1.68686ZM549.146 1.68686C543.781 11.3019 538.417 20.7483 532.884 30.3634C532.046 31.8816 531.208 33.3998 530.537 34.9179C529.867 36.4361 529.196 38.123 528.526 39.6411C528.358 40.1472 528.19 41.1593 527.855 41.4967C527.52 41.8341 527.184 41.6654 526.849 41.6654C529.029 30.0261 528.358 18.0494 528.526 6.41005C528.526 4.89188 528.526 3.20503 528.526 1.68686C521.317 1.68686 513.94 1.68686 506.732 1.68686C506.061 1.68686 503.714 1.34949 503.211 1.68686C503.043 1.85554 503.211 1.85554 503.043 2.19291C502.708 4.04845 503.043 6.24136 503.043 8.09691C502.876 25.4715 502.708 42.8462 502.708 60.2208C502.708 65.4501 502.708 70.6793 502.54 75.9086C506.732 75.9086 510.755 75.9086 514.946 75.9086C517.796 75.9086 520.479 75.9086 523.329 75.9086C523.999 75.9086 526.011 76.2459 526.682 75.9086C527.352 75.4025 528.023 73.547 528.526 72.8722C529.867 70.6793 531.208 68.4864 532.381 66.2935C535.231 61.4016 538.081 56.5097 540.931 51.6178C541.602 50.437 542.273 49.4249 542.943 48.2441C544.117 46.2199 545.123 44.027 545.961 42.0027C546.464 40.8219 546.967 39.6411 547.47 38.2917C547.805 37.2795 547.805 37.1109 548.978 37.1109C546.799 48.4128 547.47 60.0521 547.47 71.3541C547.47 72.8722 547.47 74.3904 547.47 76.0772C554.678 76.0772 562.055 76.0772 569.264 76.0772C569.934 76.0772 572.281 76.4146 572.784 76.0772C572.952 75.9086 572.784 75.9086 572.952 75.5712C573.287 73.7157 572.952 71.5227 572.952 69.6672C573.119 52.2926 573.287 34.9179 573.287 17.5433C573.287 12.314 573.287 7.0848 573.455 1.85554C565.072 1.68685 557.025 1.68686 549.146 1.68686ZM586.866 1.68686C586.866 9.78377 586.699 17.8807 586.699 25.8089C591.728 25.6402 596.758 25.3028 601.787 25.1342C601.619 39.9785 601.619 54.8228 601.452 69.4985C601.452 71.6914 601.452 73.7157 601.452 75.9086C606.649 75.9086 612.013 75.9086 617.21 75.9086C620.228 75.9086 623.246 75.9086 626.263 75.9086C627.437 75.9086 627.604 76.2459 627.772 75.2338C628.107 70.3419 627.772 65.2814 627.94 60.2208C627.94 52.9673 628.107 45.5451 628.107 38.2917C628.107 33.9058 628.107 29.52 628.275 25.1342C633.304 25.3028 638.334 25.6402 643.363 25.8089C643.363 17.712 643.531 9.61509 643.531 1.68686C627.102 1.68686 610.672 1.68686 594.243 1.68686C591.561 1.68686 589.213 1.68686 586.866 1.68686ZM695.333 29.1826C690.975 29.1826 686.784 29.1826 682.425 29.1826C682.425 20.0736 682.592 10.7959 682.592 1.68686C675.216 1.68686 668.007 1.68686 660.631 1.68686C659.792 1.68686 657.781 1.34949 656.943 1.68686C656.44 1.85554 656.775 1.51816 656.607 2.19291C656.44 2.86765 656.607 3.71108 656.607 4.38583C656.607 5.56663 656.607 6.74742 656.607 8.09691C656.44 25.4715 656.272 43.0148 656.272 60.3895C656.272 65.6187 656.272 70.848 656.104 76.0772C666.666 76.0772 677.395 76.0772 687.957 76.0772C694.831 76.0772 702.039 75.7399 708.41 72.7035C717.295 68.3177 721.151 58.3652 719.81 48.7502C719.139 43.1835 716.457 37.7856 711.93 34.4119C707.572 30.5321 701.369 29.1826 695.333 29.1826ZM692.987 56.8471C690.136 58.7026 685.61 58.0279 682.425 58.0279C682.425 55.6663 682.425 53.3047 682.425 50.9431C682.425 49.5936 682.425 48.0754 682.425 46.7259C682.425 45.7138 682.257 45.8825 682.928 45.7138C684.101 45.3765 685.945 45.7138 687.286 45.7138C688.963 45.7138 690.807 45.7138 692.316 46.3886C696.172 48.2441 696.339 54.6542 692.987 56.8471ZM52.9135 113.694C48.3871 121.96 43.6929 130.394 39.1665 138.66C38.4959 139.84 37.8253 141.19 37.3224 142.539C36.8194 143.889 36.1489 145.238 35.6459 146.588C35.4783 147.094 35.143 148.275 34.8077 148.612C34.4724 148.949 34.3048 148.781 33.8018 148.781C35.3107 139.503 34.8077 130.057 34.8077 120.779C34.8077 118.923 34.8077 117.068 34.8077 115.212C34.8077 114.538 34.9754 114.032 34.6401 113.694C34.4724 113.525 33.4665 113.694 33.2989 113.694C32.4606 113.694 31.4548 113.694 30.6165 113.694C28.2695 113.694 26.0901 113.694 23.7431 113.694C20.0549 113.694 16.3666 113.694 12.6784 113.694C12.6784 120.104 12.8461 126.683 12.8461 133.093C13.0137 144.226 13.0137 155.36 13.1813 166.661C13.1813 170.204 13.1813 173.578 13.1813 177.12C13.1813 177.289 13.0137 178.638 13.1813 178.807C13.5166 179.144 16.3666 178.807 16.7019 178.807C21.899 178.807 27.096 178.807 32.293 178.807C33.1312 178.807 33.8018 178.976 34.3048 178.469C35.3106 177.457 35.9812 175.433 36.8195 174.252C39.5018 169.529 42.3518 164.637 45.0341 159.914C47.2135 156.203 49.2253 152.661 50.9017 148.612C51.237 147.769 51.5723 146.757 51.9076 145.913C52.2429 144.901 52.2429 144.732 53.2488 144.732C51.7399 153.841 52.2429 163.119 52.2429 172.228C52.2429 174.084 52.2429 175.939 52.2429 177.626C52.2429 178.469 52.0752 178.638 52.5782 178.807C53.5841 179.144 55.5958 178.807 56.7693 178.807C59.1164 178.807 61.4634 178.807 63.6428 178.807C67.1634 178.807 70.8516 178.807 74.3722 178.807C74.2045 167.336 74.2046 156.034 74.0369 144.564C74.0369 136.973 73.8693 129.551 73.8693 121.96C73.8693 119.767 73.8693 117.574 73.8693 115.381C73.8693 114.2 74.2046 113.863 73.1987 113.863C69.5105 113.525 65.4869 113.863 61.7987 113.863C58.9487 113.694 55.9311 113.694 52.9135 113.694ZM102.369 114.369C100.022 115.044 97.675 116.056 95.3279 117.068C94.3221 117.574 93.3162 118.08 92.3103 118.586C91.975 118.755 90.6339 119.261 90.6339 119.429C90.6339 119.598 91.1368 120.61 91.1368 120.779C91.6397 121.791 91.9751 122.803 92.478 123.984C94.1545 128.032 95.9985 131.912 97.675 135.961C101.698 132.418 106.56 129.888 111.925 130.057C113.769 130.057 116.116 130.394 117.625 131.575C119.134 132.756 119.637 135.286 118.128 136.804C116.284 138.66 112.763 138.154 110.416 138.154C108.069 138.154 105.722 138.154 103.543 138.154C103.543 140.853 103.543 143.552 103.543 146.251C103.543 148.106 103.543 149.962 103.543 151.986C103.543 152.323 103.375 154.179 103.543 154.516C103.878 154.853 106.896 154.516 107.231 154.516C108.74 154.516 110.248 154.516 111.925 154.516C113.937 154.516 116.451 154.347 118.295 155.528C120.81 157.046 119.972 160.589 117.625 161.77C114.44 163.288 110.248 163.119 106.896 162.276C102.704 161.264 99.1838 158.902 95.9985 156.034C94.825 158.733 93.6515 161.264 92.478 163.963C91.6398 165.987 90.8015 167.842 89.9633 169.867C89.628 170.71 88.2868 172.565 88.4544 173.409C88.4544 174.421 92.1427 175.602 93.1486 176.108C96.8368 177.795 100.693 178.976 104.548 179.819C111.925 181.168 120.307 181.337 127.684 179.482C133.551 178.132 139.251 174.927 142.269 169.529C145.286 164.131 145.789 156.54 141.934 151.48C140.928 150.13 139.754 149.118 138.413 148.106C137.742 147.6 137.072 147.263 136.401 146.925C136.066 146.757 133.551 146.082 133.551 145.744C133.384 145.407 136.904 143.552 137.407 143.214C138.581 142.202 139.587 141.19 140.257 140.009C143.442 134.611 142.604 126.683 138.916 121.622C135.898 117.574 131.204 115.212 126.342 114.032C118.798 111.501 110.081 111.839 102.369 114.369ZM209.83 113.694C208.489 118.586 207.148 123.647 205.639 128.539C204.13 133.936 201.951 139.84 201.28 145.407C201.28 145.913 201.28 148.443 200.61 147.431C200.107 146.757 200.274 144.901 200.107 144.058C199.771 142.539 199.436 141.19 199.101 139.672C198.43 137.31 197.76 134.949 197.089 132.587C195.245 126.514 193.569 120.442 191.724 114.369C191.724 114.2 191.557 113.525 191.389 113.357C191.054 113.188 189.88 113.357 189.377 113.357C186.192 113.357 183.007 113.357 179.822 113.357C176.469 113.357 173.283 113.357 169.93 113.357C169.092 113.357 167.583 113.019 167.248 113.694C166.745 114.369 166.745 116.562 166.745 117.405C166.41 119.767 166.075 122.128 165.572 124.49C164.566 131.406 163.392 138.154 162.386 145.07C161.381 151.986 160.207 158.902 159.201 165.649C158.866 168.18 158.363 170.879 158.028 173.409C157.86 174.758 157.357 176.277 157.357 177.795C157.357 177.963 157.357 178.132 157.189 178.469C160.71 178.469 164.398 178.469 167.919 178.469C170.601 178.469 173.116 178.469 175.798 178.469C176.636 178.469 177.475 178.469 178.313 178.469C178.648 178.469 179.654 178.638 179.822 178.469C180.157 178.301 179.989 176.951 180.157 176.614C180.325 174.758 180.492 172.734 180.66 170.879C181.163 165.649 181.666 160.42 182.169 155.191C182.504 151.142 183.007 147.094 183.007 143.045C184.013 142.708 183.677 144.058 183.845 144.901C184.013 146.419 184.348 147.769 184.683 149.118C184.851 149.793 185.019 150.299 185.186 150.974C185.857 152.998 186.527 155.191 187.198 157.215C189.042 163.119 190.886 169.023 192.73 174.927C193.066 175.771 193.233 176.783 193.569 177.626C193.569 177.795 193.736 178.638 193.904 178.638C194.239 178.807 195.413 178.638 195.748 178.638C197.257 178.638 198.766 178.638 200.107 178.638C201.616 178.638 203.292 178.638 204.801 178.638C205.304 178.638 206.98 178.976 207.483 178.638C207.986 178.301 208.321 176.445 208.489 175.771C210.333 170.035 212.01 164.3 213.854 158.565C215.195 154.516 216.536 150.468 217.542 146.251C217.71 145.913 218.045 143.214 218.213 143.214C218.716 143.045 218.548 145.913 218.548 146.419C218.715 147.6 218.716 148.781 218.883 149.962C219.051 151.817 219.218 153.673 219.554 155.528C220.224 161.77 220.895 167.842 221.566 174.084C221.733 175.096 221.733 176.108 221.901 177.12C221.901 177.457 221.901 178.469 222.068 178.638C222.571 179.144 225.254 178.638 225.924 178.638C231.792 178.638 237.492 178.638 243.36 178.638C243.862 178.638 244.198 178.638 244.701 178.638C242.689 166.661 240.677 154.685 238.665 142.877C237.324 135.455 236.151 128.032 234.809 120.442C234.474 118.417 234.139 116.393 233.804 114.538C233.636 113.188 232.798 113.694 231.457 113.694C224.415 113.694 217.039 113.694 209.83 113.694ZM259.453 113.694C259.621 129.551 259.621 145.407 259.789 161.095C259.789 165.143 259.789 169.192 259.956 173.072C259.956 174.421 259.956 175.602 259.956 176.951C259.956 177.12 259.789 178.469 259.956 178.638C260.124 178.807 260.962 178.638 261.298 178.638C262.639 178.638 263.98 178.638 265.321 178.638C270.015 178.638 274.709 178.638 279.403 178.638C287.618 178.638 295.833 178.638 304.215 178.638C304.215 175.77 304.215 172.903 304.215 170.035C304.215 168.011 304.215 165.818 304.215 163.794C304.215 163.288 304.55 161.095 304.215 160.757C304.047 160.589 302.539 160.757 302.203 160.757C300.359 160.757 298.683 160.757 296.839 160.757C292.983 160.757 288.959 160.757 285.103 160.757C284.768 160.757 283.93 160.926 283.595 160.757C283.259 160.589 283.427 160.589 283.427 160.083C283.092 158.396 283.427 156.203 283.427 154.516C289.462 154.516 295.665 154.516 301.7 154.516C301.7 151.817 301.7 149.287 301.7 146.588C301.7 144.732 301.7 142.708 301.7 140.853C301.7 140.178 302.036 138.154 301.7 137.479C301.533 137.141 300.694 137.31 300.359 137.31C298.85 137.31 297.174 137.31 295.665 137.31C292.145 137.31 288.456 137.31 284.936 137.31C283.762 137.31 283.595 137.648 283.595 136.467C283.427 134.78 283.595 132.924 283.595 131.237C290.3 131.237 297.006 131.237 303.712 131.237C303.712 126.852 303.712 122.297 303.544 117.911C303.544 116.899 303.544 115.718 303.544 114.706C303.544 114.538 303.712 113.694 303.544 113.525C303.209 113.357 301.533 113.525 301.197 113.525C290.803 113.525 280.409 113.525 270.015 113.525C266.159 113.694 262.806 113.694 259.453 113.694ZM355.515 113.694C355.515 121.116 355.682 128.37 355.682 135.792C351.491 135.792 347.132 135.792 342.941 135.792C341.6 135.792 341.265 136.129 341.265 134.949C341.265 132.756 341.265 130.563 341.265 128.539C341.265 125.671 341.265 122.972 341.265 120.104C341.265 118.923 341.265 117.743 341.265 116.562C341.265 115.887 341.432 114.875 341.265 114.369C341.097 114.032 341.265 114.032 341.097 113.863C340.93 113.694 339.756 113.863 339.588 113.863C337.241 113.863 334.894 113.863 332.547 113.863C328.021 113.863 323.327 113.863 318.8 113.863C318.968 125.671 318.968 137.31 319.136 149.118C319.136 156.54 319.303 164.131 319.303 171.553C319.303 173.578 319.303 175.77 319.303 177.795C319.303 179.144 319.303 178.976 320.644 178.976C327.685 178.976 334.727 178.976 341.935 178.976C341.935 171.385 341.768 163.963 341.768 156.372C346.127 156.372 350.318 156.372 354.676 156.372C356.018 156.372 356.185 156.034 356.185 157.384C356.185 159.577 356.185 161.77 356.185 163.794C356.185 166.661 356.185 169.529 356.185 172.397C356.185 174.252 356.018 176.445 356.185 178.301C356.353 179.313 356.688 178.976 357.694 178.976C360.041 178.976 362.388 178.976 364.568 178.976C369.262 178.976 373.956 178.976 378.65 178.976C378.482 167.168 378.482 155.528 378.315 143.72C378.315 136.298 378.147 128.707 378.147 121.285C378.147 119.261 378.147 117.068 378.147 115.044C378.147 113.694 378.147 113.863 376.806 113.863C369.765 113.694 362.556 113.694 355.515 113.694ZM395.917 113.694C396.085 129.551 396.085 145.407 396.253 161.095C396.253 165.143 396.253 169.192 396.42 173.072C396.42 174.421 396.42 175.602 396.42 176.951C396.42 177.12 396.253 178.469 396.42 178.638C396.588 178.807 397.426 178.638 397.762 178.638C399.103 178.638 400.444 178.638 401.785 178.638C406.479 178.638 411.173 178.638 415.867 178.638C424.082 178.638 432.297 178.638 440.679 178.638C440.679 175.77 440.679 172.903 440.679 170.035C440.679 168.011 440.679 165.818 440.679 163.794C440.679 163.288 441.014 161.095 440.679 160.757C440.511 160.589 439.003 160.757 438.667 160.757C436.823 160.757 435.147 160.757 433.303 160.757C429.447 160.757 425.423 160.757 421.567 160.757C421.232 160.757 420.394 160.926 420.058 160.757C419.723 160.589 419.891 160.589 419.891 160.083C419.556 158.396 419.891 156.203 419.891 154.516C425.926 154.516 432.129 154.516 438.164 154.516C438.164 151.817 438.164 149.287 438.164 146.588C438.164 144.732 438.164 142.708 438.164 140.853C438.164 140.178 438.5 138.154 438.164 137.479C437.997 137.141 437.158 137.31 436.823 137.31C435.314 137.31 433.638 137.31 432.129 137.31C428.608 137.31 424.92 137.31 421.4 137.31C420.226 137.31 420.058 137.648 420.058 136.467C419.891 134.78 420.058 132.924 420.058 131.237C426.764 131.237 433.47 131.237 440.176 131.237C440.176 126.852 440.176 122.297 440.008 117.911C440.008 116.899 440.008 115.718 440.008 114.706C440.008 114.538 440.176 113.694 440.008 113.525C439.673 113.357 437.997 113.525 437.661 113.525C427.267 113.525 416.873 113.525 406.479 113.525C402.623 113.694 399.27 113.694 395.917 113.694ZM491.979 113.694C491.979 121.116 492.146 128.37 492.146 135.792C487.955 135.792 483.596 135.792 479.405 135.792C478.064 135.792 477.729 136.129 477.729 134.949C477.729 132.756 477.729 130.563 477.729 128.539C477.729 125.671 477.729 122.972 477.729 120.104C477.729 118.923 477.729 117.743 477.729 116.562C477.729 115.887 477.896 114.875 477.729 114.369C477.561 114.032 477.729 114.032 477.561 113.863C477.394 113.694 476.22 113.863 476.052 113.863C473.705 113.863 471.358 113.863 469.011 113.863C464.485 113.863 459.791 113.863 455.264 113.863C455.432 125.671 455.432 137.31 455.599 149.118C455.599 156.54 455.767 164.131 455.767 171.553C455.767 173.578 455.767 175.77 455.767 177.795C455.767 179.144 455.767 178.976 457.108 178.976C464.15 178.976 471.191 178.976 478.399 178.976C478.399 171.385 478.232 163.963 478.232 156.372C482.591 156.372 486.782 156.372 491.141 156.372C492.482 156.372 492.649 156.034 492.649 157.384C492.649 159.577 492.649 161.77 492.649 163.794C492.649 166.661 492.649 169.529 492.649 172.397C492.649 174.252 492.482 176.445 492.649 178.301C492.817 179.313 493.152 178.976 494.158 178.976C496.505 178.976 498.852 178.976 501.032 178.976C505.726 178.976 510.42 178.976 515.114 178.976C514.946 167.168 514.946 155.528 514.779 143.72C514.779 136.298 514.611 128.707 514.611 121.285C514.611 119.261 514.611 117.068 514.611 115.044C514.611 113.694 514.611 113.863 513.27 113.863C506.061 113.694 499.02 113.694 491.979 113.694ZM572.784 113.694C568.258 121.96 563.564 130.394 559.037 138.66C558.367 139.84 557.696 141.19 557.193 142.539C556.69 143.889 556.02 145.238 555.517 146.588C555.349 147.094 555.014 148.275 554.678 148.612C554.343 148.949 554.175 148.781 553.672 148.781C555.181 139.503 554.678 130.225 554.678 120.779C554.678 118.923 554.678 117.068 554.678 115.212C554.678 114.538 554.846 114.032 554.511 113.694C554.343 113.525 553.337 113.694 553.17 113.694C552.331 113.694 551.326 113.694 550.487 113.694C548.14 113.694 545.961 113.694 543.614 113.694C539.925 113.694 536.237 113.694 532.549 113.694C532.549 120.104 532.717 126.683 532.717 133.093C532.884 144.226 532.884 155.36 533.052 166.661C533.052 170.204 533.052 173.578 533.052 177.12C533.052 177.289 532.884 178.638 533.052 178.807C533.387 179.144 536.237 178.807 536.573 178.807C541.77 178.807 546.967 178.807 552.164 178.807C553.002 178.807 553.672 178.976 554.175 178.469C555.181 177.457 555.852 175.433 556.69 174.252C559.372 169.529 562.222 164.637 564.905 159.914C567.084 156.203 569.096 152.661 570.772 148.612C571.108 147.769 571.443 146.757 571.778 145.913C572.114 144.901 572.114 144.732 573.12 144.732C571.611 153.841 572.114 163.119 572.114 172.228C572.114 174.084 572.114 175.939 572.114 177.626C572.114 178.469 571.946 178.638 572.449 178.807C573.455 179.144 575.466 178.807 576.64 178.807C578.987 178.807 581.334 178.807 583.513 178.807C587.034 178.807 590.722 178.807 594.243 178.807C594.075 167.336 594.075 156.034 593.908 144.564C593.908 136.973 593.74 129.551 593.74 121.96C593.74 119.767 593.74 117.574 593.74 115.381C593.74 114.2 594.075 113.863 593.069 113.863C589.381 113.525 585.358 113.863 581.669 113.863C578.652 113.694 575.634 113.694 572.784 113.694ZM616.708 120.61C607.822 129.551 608.493 148.949 621.402 153.841C622.24 154.179 622.91 154.347 623.749 154.516C624.419 154.685 625.09 154.516 625.257 155.191C625.257 155.528 623.916 156.54 623.581 156.878C622.91 157.552 622.407 158.396 621.737 159.239C621.234 159.914 620.899 160.589 620.563 161.264C618.552 164.637 616.372 167.842 614.36 171.216C612.684 173.746 611.175 176.445 609.499 178.976C615.869 178.976 622.24 178.976 628.443 178.976C630.119 178.976 631.628 178.976 633.304 178.976C633.64 178.976 634.981 179.144 635.316 178.976C635.651 178.638 635.987 177.289 636.154 176.951C636.825 175.264 637.496 173.746 638.334 172.059C639.843 168.517 641.351 165.143 642.86 161.601C643.028 161.264 643.363 159.914 643.866 160.251C644.201 160.42 643.866 162.782 643.866 163.119C643.866 167.168 643.866 171.216 644.034 175.264C644.034 175.939 643.698 178.132 644.034 178.807C644.201 179.144 644.704 178.976 645.207 178.976C652.416 178.976 659.457 178.976 666.666 178.976C666.498 164.131 666.498 149.118 666.331 134.274C666.331 130.057 666.331 126.008 666.163 121.791C666.163 119.429 666.331 117.068 666.163 114.706C666.163 114.369 666.163 114.2 665.995 114.032C665.492 113.694 663.145 114.032 662.642 114.032C658.116 114.032 653.422 114.032 648.895 114.032C637.998 113.694 625.09 112.345 616.708 120.61ZM643.698 143.045C640.346 143.045 635.484 143.552 633.807 139.84C632.801 137.648 633.304 134.611 635.149 133.093C636.657 131.912 638.669 131.744 640.513 131.575C641.184 131.575 643.196 131.237 643.531 131.744C643.866 132.25 643.531 134.611 643.531 135.286C643.699 137.816 643.698 140.347 643.698 143.045ZM707.907 112.345C701.704 112.345 695.333 113.694 690.304 117.574C685.275 121.454 682.089 127.526 681.419 133.936C686.784 133.936 692.148 133.936 697.513 133.936C698.854 133.936 700.195 133.936 701.536 133.936C701.872 133.936 703.045 134.105 703.213 133.936C703.38 133.768 703.213 132.587 703.213 132.418C703.213 131.744 703.38 131.069 703.716 130.563C704.051 129.719 704.554 129.045 705.392 128.539C708.075 127.02 711.092 128.539 711.595 131.575C712.098 134.274 711.092 137.31 708.745 138.66C706.23 140.178 702.542 140.009 699.86 138.828C699.86 142.708 699.86 146.757 700.028 150.636C700.028 151.311 699.86 152.323 700.028 152.998C700.028 153.167 700.028 153.504 700.028 153.504C700.195 153.841 702.039 153.841 702.542 154.01C706.23 154.516 710.086 154.516 713.775 154.179C721.319 153.504 728.36 150.299 731.377 142.877C734.227 135.792 733.557 127.02 728.527 120.948C723.666 114.706 715.619 112.345 707.907 112.345ZM697.848 161.938C694.328 165.481 693.992 171.047 697.01 175.096C699.86 178.976 705.392 180.494 709.919 179.819C714.948 179.144 719.307 175.939 720.313 170.71C721.151 165.818 717.966 161.264 713.607 159.408C708.41 157.384 701.872 157.89 697.848 161.938Z" fill="white"/>
</svg>
