<svg width="545" height="232" viewBox="0 0 545 232" fill="none" xmlns="http://www.w3.org/2000/svg">
<path d="M333.937 169.01C336.535 169.01 339.262 168.751 341.6 168.362L341.73 157.086L326.663 141.922L326.534 161.104C326.534 161.363 326.534 161.622 326.534 161.882C326.534 162.011 326.534 162.011 326.534 162.141C326.534 162.4 326.534 162.53 326.534 162.789C326.534 162.918 326.534 162.918 326.534 163.048C326.534 163.178 326.534 163.437 326.534 163.566C326.534 163.696 326.534 163.826 326.534 163.955C326.534 164.085 326.534 164.215 326.663 164.474C326.663 164.603 326.663 164.733 326.793 164.863C326.793 164.992 326.923 165.122 326.923 165.251C326.923 165.381 327.053 165.511 327.053 165.64C327.053 165.77 327.183 165.899 327.183 166.029C327.183 166.159 327.313 166.288 327.313 166.288C327.443 166.418 327.443 166.547 327.573 166.677C327.703 166.807 327.703 166.936 327.832 166.936C327.962 167.066 328.092 167.196 328.222 167.325C329.781 168.751 332.378 169.01 333.937 169.01Z" fill="#CB403B"/>
<path d="M297.829 27.4771L297.959 39.4011C297.959 43.5486 297.959 47.4368 297.439 51.0659L297.569 65.4525H314.584L314.324 27.3475H297.829V27.4771Z" fill="#CB403B"/>
<path d="M162.359 30.8469L144.175 30.0693L144.435 47.6961L145.344 47.8257L158.203 34.9944L181.322 80.7463L168.464 107.446H201.974L218.859 90.467H185.349L198.207 63.8972L167.035 2.07371L162.099 6.99886L162.359 30.8469Z" fill="#CB403B"/>
<path d="M263.409 156.438L248.992 141.922L257.175 161.752C258.084 163.696 258.604 165.64 258.993 167.973H259.773C260.162 165.77 260.812 163.307 261.591 161.363L263.409 156.438Z" fill="#CB403B"/>
<path d="M253.798 53.7877C253.798 57.5463 253.798 61.8234 253.149 65.7117L236.393 82.5609L236.783 125.073H263.929L280.814 108.094H253.668L253.278 65.5821C258.344 65.0637 262.5 62.6011 265.228 59.8793C270.683 54.0469 270.813 44.5854 270.813 36.8089L270.553 2.07371L253.668 19.0525L253.798 53.7877Z" fill="#CB403B"/>
<path d="M211.456 26.6994C212.495 29.0324 213.404 31.4949 213.923 34.3463H214.833C215.222 31.4949 216.002 28.5139 216.911 26.181L225.743 2.07371L208.858 19.0525L208.598 19.9598L211.456 26.6994Z" fill="#CB403B"/>
<path d="M328.352 90.4671H280.554L280.684 107.446H311.467L311.597 125.073H338.613L355.628 108.094H328.482L328.352 90.4671Z" fill="#CB403B"/>
<path d="M450.963 55.0838C451.613 59.8793 453.171 64.4157 456.938 68.3039C459.666 71.1553 464.082 74.1363 470.316 74.914V75.4324L468.628 77.247C467.459 78.4134 466.42 79.7095 465.511 81.2648L448.755 107.575H484.084L495.904 95.6514L496.034 107.575H526.946L543.831 90.5967H512.919L512.659 64.9341H512.139L500.969 90.4671H465.511L482.266 64.1564C482.525 63.638 482.785 63.2492 483.175 62.8604C483.305 62.6011 483.565 62.3419 483.694 62.2123C483.824 62.0827 483.824 61.9531 483.954 61.8235L484.084 61.6939C484.993 60.657 486.032 59.6201 487.201 58.5833V57.9352C480.967 57.1576 476.551 54.047 473.823 51.3252C468.888 46.1408 467.589 39.9196 467.589 33.4391C467.589 30.9766 467.719 28.2548 468.368 25.4034C468.628 23.9777 469.017 22.552 469.537 21.1263C470.186 19.1821 471.096 17.3676 472.394 15.5531C473.304 14.1274 474.343 12.8313 475.642 11.5352L458.757 28.514C453.561 33.6983 451.613 40.1788 451.093 45.752L450.963 55.0838Z" fill="#CB403B"/>
<path d="M355.238 65.5821L355.628 107.446H379.007L395.892 90.467H367.058L366.408 2.07371L349.523 19.0525L349.783 65.5821H355.238Z" fill="#CB403B"/>
<path d="M507.853 26.3106C506.164 26.3106 502.658 26.4402 500.32 28.6436C499.41 29.5508 498.241 31.3654 498.241 34.0872C498.241 37.0682 499.54 38.7531 501.099 39.9196C502.917 41.2156 506.035 41.7341 507.983 41.7341H512.529L512.399 26.181H507.853V26.3106Z" fill="#CB403B"/>
<path d="M484.863 141.922L484.733 167.196C484.733 168.621 484.604 170.306 484.474 171.991C484.344 173.158 484.214 174.324 484.084 175.49C483.954 176.009 483.954 176.657 483.824 177.175C483.694 178.342 483.435 179.379 483.305 180.286H484.214C485.383 177.175 487.331 172.38 489.02 169.658L497.592 154.623L484.863 141.922Z" fill="#CB403B"/>
<path d="M434.338 107.446L451.223 90.4671H420.7L420.44 60.3978C420.44 55.4726 421.09 48.4737 421.869 44.067H420.7C419.401 47.9553 416.804 54.1766 414.985 57.2872L403.555 77.1173V77.2469L403.815 107.316H434.338V107.446Z" fill="#CB403B"/>
<path d="M397.191 33.4391C397.191 38.105 396.542 45.1039 395.762 49.7698H396.931C398.36 45.8815 400.698 39.9195 402.646 36.5497L421.739 2.07371L404.854 19.0525L397.191 32.9206V33.4391Z" fill="#CB403B"/>
<path d="M409.4 164.992L416.284 152.42L405.893 142.051L405.763 164.214C405.763 167.455 405.634 169.917 405.114 173.158H405.633C407.192 169.01 408.101 167.325 409.4 164.992Z" fill="#CB403B"/>
<path d="M341.34 188.322C336.275 189.229 332.119 189.618 327.443 189.618C327.053 189.618 326.534 189.618 326.144 189.618C326.014 189.618 325.884 189.618 325.754 189.618C325.494 189.618 325.105 189.618 324.715 189.618C324.585 189.618 324.326 189.618 324.196 189.618C323.936 189.618 323.676 189.618 323.286 189.618C323.027 189.618 322.897 189.618 322.637 189.618C322.377 189.618 322.117 189.618 321.858 189.618C321.598 189.618 321.468 189.618 321.208 189.618C320.948 189.618 320.689 189.618 320.429 189.488C320.169 189.488 320.039 189.488 319.78 189.359C319.52 189.359 319.26 189.359 319 189.229C318.74 189.229 318.611 189.099 318.351 189.099C318.091 189.099 317.831 188.97 317.571 188.97C317.312 188.97 317.182 188.84 316.922 188.84C316.662 188.84 316.403 188.711 316.143 188.711C315.883 188.711 315.753 188.581 315.493 188.581C315.234 188.581 314.974 188.451 314.714 188.451C314.454 188.451 314.324 188.322 314.065 188.192C313.805 188.062 313.545 188.062 313.285 187.933C313.025 187.803 312.896 187.803 312.636 187.674C312.376 187.544 312.116 187.544 311.986 187.414C311.727 187.285 311.597 187.285 311.337 187.155C311.077 187.026 310.817 186.896 310.688 186.896C310.428 186.766 310.298 186.637 310.038 186.637C309.778 186.507 309.648 186.378 309.389 186.248C309.259 186.118 308.999 185.989 308.869 185.859C308.609 185.73 308.48 185.6 308.22 185.47C308.09 185.341 307.83 185.211 307.7 185.081C307.57 184.952 307.311 184.822 307.181 184.563C307.051 184.433 306.791 184.304 306.661 184.045C306.531 183.915 306.401 183.785 306.271 183.656L323.156 200.635C327.702 205.171 334.846 206.337 341.081 206.597L341.34 188.322Z" fill="#CB403B"/>
<path d="M30.2661 166.936C27.6684 169.658 26.1097 173.806 26.1097 177.564C26.1097 181.582 27.5385 185.6 30.1362 188.192C32.2143 190.266 35.4615 191.821 39.358 191.821C40.7868 191.821 42.2155 191.562 43.3845 191.303C44.0339 188.581 45.3327 185.859 47.1511 183.915C48.3201 182.749 50.1385 181.452 52.4764 180.804C52.7362 179.768 52.7362 178.731 52.7362 177.564C52.7362 173.028 51.3074 169.399 48.7097 166.936C46.7614 164.992 43.6442 163.307 39.4879 163.307C35.0718 163.307 32.0845 165.122 30.2661 166.936Z" fill="#CB403B"/>
<path d="M224.314 192.21C226.133 191.173 227.821 189.877 228.86 188.581C231.198 185.73 231.847 182.23 231.977 178.86C231.977 171.213 228.73 167.066 226.912 165.251L210.027 148.273C210.157 148.402 210.287 148.532 210.416 148.661L210.546 148.791C210.676 148.921 210.676 148.921 210.806 149.05L210.936 149.18C211.066 149.309 211.066 149.439 211.196 149.439C211.196 149.569 211.326 149.569 211.326 149.698C211.456 149.828 211.456 149.958 211.585 150.087C211.585 150.217 211.715 150.217 211.715 150.346C211.845 150.476 211.845 150.606 211.975 150.735C211.975 150.865 212.105 150.994 212.105 150.994C212.235 151.124 212.235 151.254 212.365 151.383C212.365 151.513 212.495 151.642 212.495 151.772C212.624 151.902 212.624 152.031 212.754 152.161C212.754 152.29 212.884 152.42 212.884 152.55C213.014 152.679 213.014 152.809 213.144 153.068C213.144 153.198 213.274 153.327 213.274 153.457C213.404 153.587 213.404 153.846 213.534 153.975C213.534 154.105 213.664 154.235 213.664 154.364C213.664 154.494 213.793 154.753 213.793 154.883C213.793 155.012 213.923 155.142 213.923 155.401C213.923 155.66 214.053 155.79 214.053 156.049C214.053 156.179 214.183 156.438 214.183 156.568C214.183 156.827 214.313 156.956 214.313 157.216C214.313 157.345 214.443 157.604 214.443 157.734C214.443 157.993 214.573 158.252 214.573 158.512C214.573 158.641 214.573 158.901 214.703 159.03C214.703 159.289 214.703 159.678 214.833 159.937C214.833 160.067 214.833 160.197 214.833 160.456C214.833 160.974 214.833 161.363 214.833 161.882C214.833 165.251 214.183 168.751 211.715 171.602C210.287 173.287 208.079 174.972 205.481 176.009L205.351 176.657C208.208 177.435 210.546 178.731 212.754 180.934C215.222 183.267 216.781 185.859 217.43 188.84C217.56 189.488 217.69 190.007 217.69 190.655C217.69 190.784 217.69 190.784 217.69 190.914C217.82 191.562 217.82 192.21 217.82 192.988C217.82 199.857 214.573 205.301 210.027 208.541C209.637 208.8 209.118 209.189 208.728 209.448C208.598 209.578 208.468 209.578 208.338 209.707C207.949 209.837 207.689 210.096 207.299 210.226C207.169 210.355 207.039 210.355 206.91 210.485C206.52 210.744 206 210.874 205.481 211.133C204.961 211.392 204.442 211.522 203.922 211.651C203.792 211.651 203.792 211.651 203.662 211.781C203.273 211.911 202.753 212.04 202.364 212.17C202.234 212.17 202.234 212.17 202.104 212.299C199.376 212.947 196.649 213.207 194.181 213.336C193.142 213.336 192.103 213.336 191.193 213.336H156.774L156.904 196.617L152.618 192.34C154.436 191.303 155.865 190.007 157.034 188.711L157.164 167.195C156.514 166.288 155.865 165.511 155.215 164.863L138.33 147.884C138.72 148.273 138.98 148.532 139.369 148.921C139.499 149.05 139.499 149.05 139.629 149.18C139.889 149.569 140.279 149.957 140.538 150.346C140.798 150.735 141.058 151.254 141.318 151.642C141.318 151.772 141.448 151.902 141.448 152.031C141.707 152.55 141.967 152.938 142.097 153.457C142.357 153.975 142.487 154.494 142.617 155.012C142.617 155.142 142.746 155.271 142.746 155.401C142.876 155.919 143.006 156.568 143.136 157.086C143.266 157.734 143.266 158.252 143.396 158.901C143.396 159.03 143.396 159.16 143.396 159.419C143.396 160.067 143.526 160.715 143.526 161.363C143.526 166.288 141.837 169.399 140.408 171.213C138.85 173.158 136.512 175.102 133.784 176.138V176.398C137.291 177.435 140.149 179.379 142.097 181.582C143.785 183.397 144.954 185.6 145.474 188.192C145.604 188.84 145.734 189.359 145.734 190.007C145.734 190.136 145.734 190.136 145.734 190.266C145.734 190.914 145.864 191.562 145.864 192.34C145.864 199.338 142.616 206.078 135.213 210.355C130.407 213.207 123.653 214.892 113.652 214.892C107.548 214.892 101.833 214.373 95.8579 212.559C95.2085 212.429 94.5591 212.17 94.0396 211.911C93.52 211.781 92.8706 211.522 92.351 211.263C88.1947 209.707 84.9476 208.022 83.5189 207.115L92.351 187.933C93.3901 188.97 94.689 189.877 95.9878 190.914C95.2085 181.323 91.3119 173.935 86.3763 168.88C86.2464 168.751 86.2464 168.751 86.1166 168.621L69.2315 151.642C69.3614 151.772 69.3614 151.772 69.4913 151.902C74.9464 157.604 79.3625 166.288 79.2326 177.694C79.1027 189.099 74.6867 197.913 69.1016 203.486C62.997 209.707 52.9959 214.892 39.358 214.892C38.5787 214.892 37.6695 214.892 36.8902 214.892C36.6304 214.892 36.3706 214.892 36.1109 214.892C35.5913 214.892 35.0718 214.762 34.5522 214.762C34.2925 214.762 33.9028 214.632 33.6431 214.632C33.1235 214.632 32.7339 214.503 32.2143 214.503C31.8247 214.503 31.5649 214.373 31.1752 214.373C30.7856 214.244 30.266 214.244 29.8764 214.114C29.4867 213.984 29.2269 213.984 28.8373 213.855C28.4476 213.725 28.058 213.725 27.6683 213.596C27.4086 213.466 27.0189 213.466 26.7591 213.336C26.3695 213.207 25.9798 213.077 25.5902 213.077C25.3304 212.947 24.9407 212.818 24.681 212.818C24.2913 212.688 23.9017 212.559 23.6419 212.429C23.3821 212.299 22.9925 212.17 22.7327 212.04C22.343 211.911 22.0833 211.781 21.6936 211.651C21.4339 211.522 21.1741 211.392 20.7844 211.263C20.5246 211.133 20.135 211.003 19.8752 210.874C19.6155 210.744 19.3557 210.614 19.0959 210.485C18.8362 210.355 18.4465 210.226 18.1867 209.966C17.9269 209.837 17.6672 209.707 17.4074 209.578C17.1477 209.448 16.8879 209.318 16.6281 209.059C16.3683 208.93 16.1086 208.8 15.8488 208.541C15.589 208.411 15.3293 208.152 15.0695 208.022C14.8097 207.893 14.5499 207.633 14.4201 207.504C14.1603 207.374 13.9005 207.115 13.6407 206.985C13.381 206.856 13.2511 206.597 12.9913 206.467C12.7315 206.337 12.4718 206.078 12.3419 205.949C12.0821 205.819 11.9522 205.56 11.6925 205.43C11.4327 205.301 11.3028 205.041 11.043 204.912C10.7833 204.782 10.6534 204.523 10.5235 204.393C10.3936 204.264 10.1339 204.134 10.004 203.875L26.889 220.854C32.9936 226.945 42.735 232 56.243 232C69.8809 232 79.8821 226.816 85.9867 220.594C87.6752 218.909 89.2338 216.836 90.6625 214.632L100.404 224.353C102.222 225.39 107.028 227.982 112.743 229.667C118.588 231.482 124.433 232 130.537 232C140.538 232 147.162 230.315 152.098 227.464C156.514 224.871 159.372 221.502 161.06 217.613L173.789 230.315H208.598C214.313 230.315 221.587 229.926 227.431 225.779C231.977 222.539 235.224 217.095 235.224 210.226C235.224 205.689 233.796 201.931 230.549 198.561L224.314 192.21Z" fill="#CB403B"/>
<path d="M301.466 167.455L301.596 147.884L295.751 142.051L262.37 213.207H235.354L252.239 230.185H279.255L303.284 178.99C301.596 175.361 301.466 171.473 301.466 167.455Z" fill="#CB403B"/>
<path d="M181.062 159.03L180.933 169.269H184.959C186.518 169.269 188.726 168.88 189.895 167.714C190.544 167.066 191.323 165.899 191.323 163.955C191.323 162.141 190.674 161.104 190.024 160.456C189.895 160.326 189.895 160.326 189.765 160.197C188.336 159.16 185.998 159.03 185.089 159.03H181.062Z" fill="#CB403B"/>
<path d="M460.055 169.528L460.185 152.29L449.924 142.051L427.454 176.916L451.743 213.207H421.869L409.011 190.395C407.712 188.322 406.543 185.73 405.633 183.526H405.114C405.504 185.989 405.633 187.933 405.633 190.266L405.504 213.207H380.566L380.955 156.308L366.668 142.051L366.148 213.207H341.211L358.096 230.185H383.034L383.163 215.928L397.451 230.185H422.259L422.389 213.855L438.754 230.185H468.758L444.469 193.895L460.055 169.528Z" fill="#CB403B"/>
<path d="M504.476 175.75H503.567L504.346 176.527C504.476 176.398 504.476 176.009 504.476 175.75Z" fill="#CB403B"/>
<path d="M528.115 141.922L527.596 213.077H502.917L503.047 188.84C503.047 185.211 503.697 180.027 504.346 176.527L503.567 175.75C503.437 176.139 503.307 176.527 503.177 176.916C503.047 177.175 502.917 177.435 502.917 177.694C502.917 177.823 502.788 177.953 502.788 178.083C502.658 178.471 502.528 178.86 502.268 179.249C502.268 179.249 502.268 179.249 502.268 179.379C502.138 179.768 501.878 180.286 501.748 180.675C500.839 182.878 499.8 185.082 498.891 186.507L483.045 213.207H459.796L476.681 230.185H499.93L507.333 217.613L519.932 230.185H544.481L545 159.03L528.115 141.922Z" fill="#CB403B"/>
<path d="M45.8522 109.39C50.0085 109.39 59.7499 109.001 68.1924 105.761L85.0774 88.7821C76.7648 91.8927 66.8936 92.4112 62.7373 92.4112C51.1775 92.4112 38.8384 88.2637 30.0062 79.5799C21.5637 71.4145 17.0177 59.4905 16.8878 46.9184C16.758 33.3095 21.8235 21.6447 29.8763 13.3497L12.9913 30.3285C4.93843 38.4938 -0.127079 50.1586 0.00280588 63.8972C0.132691 76.3396 4.67867 88.2637 13.1212 96.5586C21.8235 105.242 34.2924 109.39 45.8522 109.39Z" fill="#CB403B"/>
<path d="M85.597 37.1978C83.6488 35.2536 80.9212 33.0503 77.5441 31.3654C77.1545 31.1062 76.7648 30.9766 76.3752 30.7173C75.9855 30.5877 75.5959 30.3285 75.2062 30.1989H75.0763C74.6867 30.0693 74.297 29.9397 73.9074 29.8101C73.7775 29.8101 73.7775 29.8101 73.6476 29.6805C73.2579 29.5509 72.8683 29.4212 72.6085 29.2916C72.4786 29.2916 72.3487 29.2916 72.2189 29.162C71.8292 29.0324 71.5694 29.0324 71.1798 28.9028C71.0499 28.9028 70.7901 28.7732 70.6603 28.7732C70.4005 28.7732 70.1407 28.6436 69.7511 28.6436C69.4913 28.6436 69.2315 28.6436 68.9717 28.514C68.712 28.514 68.5821 28.514 68.3223 28.3844C67.8028 28.3844 67.2832 28.3844 66.8936 28.3844C66.2441 28.3844 65.7246 28.3844 65.0752 28.514C64.8154 28.514 64.6855 28.514 64.4258 28.6436C64.0361 28.6436 63.6465 28.7732 63.2568 28.7732C62.997 28.7732 62.7373 28.9028 62.6074 28.9028C62.2177 29.0324 61.958 29.0324 61.5683 29.162C61.3085 29.2916 61.0488 29.2916 60.9189 29.4212C60.6591 29.5509 60.2694 29.6804 60.0097 29.8101C59.7499 29.9397 59.4901 30.0693 59.3603 30.0693C59.1005 30.1989 58.7108 30.3285 58.451 30.4581C58.1913 30.5877 58.0614 30.7173 57.8016 30.8469C57.5419 30.9765 57.2821 31.1062 57.0223 31.3654C56.7626 31.495 56.6327 31.6246 56.3729 31.8838C56.1131 32.0134 55.8534 32.2726 55.5936 32.4022C55.3338 32.5318 55.204 32.7911 55.0741 32.9207C54.8143 33.1799 54.4246 33.4391 54.1649 33.8279C51.3074 36.9386 49.8787 41.086 49.6189 45.3631C49.7488 45.3631 49.8786 45.3631 50.0085 45.3631C58.0614 45.3631 65.0752 50.4179 68.8418 54.1765L77.8039 45.1039V47.6961L95.8579 46.9185L96.3775 107.316H127.939L144.825 90.3374H113.263L112.743 29.9397L94.689 30.7173L94.4292 1.94414L84.6878 11.6648L85.597 37.1978Z" fill="#CB403B"/>
<path d="M191.453 194.802C192.752 193.895 193.921 192.34 193.921 190.007C193.921 188.192 193.142 186.637 191.973 185.73C190.284 184.304 187.687 184.174 186.258 184.174H180.673L180.543 195.969H185.738C187.557 195.969 189.765 195.839 191.453 194.802Z" fill="#CB403B"/>
<path d="M100.664 168.362H109.236C113.133 168.362 114.431 168.103 115.081 167.844C116.64 167.455 117.938 166.418 117.938 164.344C117.938 162.918 117.419 162.011 116.64 161.493L116.51 161.363C116.38 161.234 116.38 161.234 116.25 161.234L116.12 161.104C115.99 161.104 115.99 160.974 115.86 160.974C115.86 160.974 115.73 160.974 115.73 160.845C115.6 160.715 115.471 160.715 115.341 160.715C113.263 159.808 110.925 159.808 109.886 159.808C107.028 159.808 103.781 160.586 101.183 161.752C98.9752 162.659 96.3775 164.474 94.2993 166.288L100.664 172.639V168.362Z" fill="#CB403B"/>
<path d="M115.99 194.154C117.549 193.377 118.458 192.21 118.458 190.396C118.458 189.229 118.198 188.451 117.419 187.674C117.289 187.544 117.159 187.415 117.029 187.285L116.899 187.155C116.639 187.026 116.51 186.896 116.25 186.766C114.821 186.118 111.574 185.989 110.015 185.989H100.534L109.626 195.191C109.626 195.191 109.626 195.191 109.756 195.191C111.834 195.321 114.431 194.932 115.99 194.154Z" fill="#CB403B"/>
<path d="M504.476 2.07375H543.182L543.831 90.4671H512.918L512.659 64.9341H512.139L500.969 90.4671H465.64L482.396 64.1564C483.694 62.0827 485.123 60.2682 487.331 58.5833V57.9352C481.097 57.1576 476.681 54.0469 473.953 51.3251C469.017 46.1408 467.719 39.9196 467.719 33.4391C467.719 26.9587 468.887 18.2749 475.641 11.5352C483.824 3.11063 495.774 2.07375 504.476 2.07375ZM512.399 41.8637L512.269 26.3106H507.723C506.035 26.3106 502.528 26.4402 500.19 28.6436C499.281 29.5508 498.112 31.3654 498.112 34.0872C498.112 37.0682 499.41 38.7531 500.969 39.9196C502.787 41.2156 505.905 41.7341 507.853 41.7341H512.399V41.8637ZM396.931 49.7698H395.762C396.542 45.1039 397.321 38.105 397.191 33.4391L396.931 2.07375H366.408L367.058 90.4671H395.892L414.985 57.2872C416.804 54.0469 419.401 47.8257 420.7 44.067H421.869C421.09 48.4737 420.31 55.4726 420.44 60.3978L420.7 90.4671H451.223L450.574 2.07375H421.739L402.646 36.5497C400.698 40.0492 398.36 45.8816 396.931 49.7698ZM344.198 2.07375L344.717 65.5821H355.368L355.758 108.094H328.612L328.482 90.4671H280.684L280.814 108.094H253.668L253.278 65.5821C258.344 65.0637 262.5 62.6011 265.228 59.8793C270.683 54.0469 270.813 44.5855 270.813 36.809L270.553 2.07375H344.198ZM314.584 65.5821L314.324 27.4771H297.829L297.959 39.4011C297.959 46.7888 298.089 53.0101 294.972 59.2313C293.673 61.6939 292.244 63.638 290.166 65.4525H314.584V65.5821ZM216.911 26.181C216.001 28.514 215.222 31.6246 214.833 34.3464H213.923C213.404 31.3654 212.495 29.0324 211.456 26.6994L200.935 2.07375H167.035L198.207 63.8972L185.349 90.5966H218.859L258.993 2.20337H225.743L216.911 26.181ZM112.613 30.0693L113.133 90.4671H144.695L144.175 30.0693L162.229 30.8469L161.969 2.07375H94.1694L94.4292 30.8469L112.613 30.0693ZM85.597 37.1978L84.428 3.49946C77.4142 1.1665 69.8809 0 63.2568 0C46.6315 0 36.1108 7.1285 29.8763 13.3497C21.8235 21.5151 16.758 33.1799 16.8878 46.9185C17.0177 59.3609 21.5637 71.2849 30.0062 79.5799C38.8384 88.2637 51.1775 92.4112 62.7372 92.4112C66.8936 92.4112 76.6349 92.0223 85.0774 88.7821L85.7269 55.7318C83.1292 58.7128 76.8947 64.0268 67.8027 64.0268C61.4384 64.0268 57.2821 61.5642 54.5545 58.9721C51.0476 55.6022 49.3591 51.0659 49.2292 46.2704C49.2292 41.6045 50.7878 36.9385 53.7752 33.6983C56.8924 30.1989 61.5683 28.2548 66.6338 28.2548C74.8166 28.514 81.8303 33.4391 85.597 37.1978ZM39.8775 140.367C53.5154 140.367 63.3867 145.551 69.4912 151.772C74.9464 157.475 79.3625 166.159 79.2326 177.564C79.1027 188.97 74.6867 197.783 69.1016 203.356C62.997 209.578 52.9959 214.762 39.358 214.762C25.72 214.762 15.8488 209.578 9.74416 203.356C4.289 197.654 -0.127091 188.97 0.00279356 177.564C0.132679 166.288 4.54879 157.475 10.1338 151.772C16.2384 145.551 26.2396 140.367 39.8775 140.367ZM48.7096 188.192C51.0476 185.859 52.866 182.101 52.866 177.564C52.866 173.028 51.4372 169.399 48.8395 166.936C46.8913 164.992 43.774 163.307 39.6177 163.307C35.0717 163.307 31.9545 165.122 30.266 166.936C27.6683 169.658 26.1097 173.806 26.1097 177.564C26.1097 181.582 27.5384 185.6 30.1361 188.192C32.2143 190.266 35.4614 191.821 39.358 191.821C43.3844 191.821 46.6315 190.266 48.7096 188.192ZM133.654 176.139C136.382 175.102 138.85 173.158 140.279 171.213C141.707 169.399 143.266 166.288 143.396 161.363C143.396 153.198 139.629 148.143 134.823 145.032C132.356 143.477 126.381 140.367 114.821 140.367C109.106 140.367 104.56 141.015 99.4947 142.57C93.7797 144.255 89.2338 146.588 86.5062 148.143L94.1694 166.029C96.2475 164.215 98.8453 162.4 101.053 161.493C103.651 160.326 106.898 159.549 109.756 159.549C110.795 159.549 113.133 159.678 115.211 160.456C116.12 160.845 117.938 161.882 117.808 164.215C117.808 166.288 116.38 167.325 114.951 167.714C114.431 167.973 113.003 168.232 109.106 168.232H100.534L100.404 186.118H109.885C111.314 186.118 114.561 186.248 116.12 186.896C117.808 187.674 118.458 188.84 118.458 190.396C118.458 192.21 117.549 193.377 115.99 194.154C114.431 194.932 111.964 195.321 109.756 195.321C106.768 195.321 103.521 194.802 100.274 193.247C97.4165 191.951 94.559 189.877 92.351 187.803L83.5188 206.985C85.3372 208.022 90.143 210.615 95.8579 212.299C101.703 214.114 107.548 214.632 113.652 214.632C123.653 214.632 130.277 212.947 135.213 210.096C142.487 205.819 145.734 198.95 145.864 192.08C145.864 187.544 144.695 184.174 142.097 181.453C140.149 179.379 137.291 177.435 133.784 176.268L133.654 176.139ZM213.014 180.934C216.651 184.304 218.21 188.322 218.21 192.988C218.21 199.857 214.962 205.301 210.416 208.541C204.442 212.688 197.168 213.077 191.583 213.077H156.774L157.293 141.922H188.466C194.57 141.922 204.052 142.57 209.767 147.884C211.455 149.439 215.222 153.716 215.092 161.882C215.092 165.251 214.443 168.751 211.975 171.602C210.546 173.287 208.338 174.972 205.741 176.009L205.611 176.657C208.468 177.435 210.806 178.731 213.014 180.934ZM191.453 194.802C192.752 193.895 193.921 192.34 193.921 190.007C193.921 188.192 193.142 186.637 191.973 185.73C190.284 184.304 187.687 184.174 186.258 184.174H180.673L180.543 195.969H185.738C187.557 195.969 189.765 195.839 191.453 194.802ZM181.062 159.03L180.933 169.269H184.959C186.518 169.269 188.726 168.88 189.895 167.714C190.544 167.066 191.323 165.899 191.323 163.955C191.323 161.882 190.414 160.715 189.765 160.197C188.336 159.16 185.998 159.03 185.089 159.03H181.062ZM259.773 167.973H258.993C258.604 165.64 257.954 163.696 257.175 161.752L248.992 141.922H221.716L246.005 191.692L235.354 213.207H262.37L295.751 142.051H268.995L261.591 161.493C260.812 163.307 260.162 165.77 259.773 167.973ZM333.937 169.01C332.378 169.01 329.781 168.751 328.222 167.325C326.534 165.77 326.404 163.307 326.404 161.234L326.534 142.051H301.596L301.336 167.584C301.336 173.287 301.726 178.731 306.142 183.397C311.467 188.97 320.429 189.747 327.443 189.747C332.119 189.747 336.275 189.488 341.34 188.451L341.211 213.336H366.148L366.668 142.181H341.73L341.47 168.492C339.262 168.751 336.535 169.01 333.937 169.01ZM421.869 141.922L409.4 164.992C408.101 167.325 407.062 169.01 405.633 173.028H405.114C405.633 169.788 405.633 167.325 405.763 164.085L405.893 141.922H381.085L380.566 213.077H405.374L405.504 190.136C405.504 187.803 405.374 185.859 404.984 183.397H405.504C406.413 185.47 407.582 188.063 408.881 190.266L421.739 213.077H451.743L427.454 176.787L449.924 141.922H421.869ZM489.02 169.658C487.331 172.38 485.383 177.175 484.214 180.286H483.305C483.954 176.527 484.604 170.825 484.733 167.196L484.863 141.922H460.315L459.795 213.077H483.045L498.891 186.378C500.45 183.786 502.528 178.86 503.697 175.75H504.606C503.956 179.249 503.307 184.952 503.177 188.84L503.047 213.077H527.595L528.115 141.922H504.866L489.02 169.658Z" fill="#F0F2F6"/>
</svg>
